<?xml version="1.0" encoding="UTF-8"?>
<svg id="_レイヤー_1" data-name="レイヤー 1" xmlns="http://www.w3.org/2000/svg" xmlns:xlink="http://www.w3.org/1999/xlink" viewBox="0 0 133.46 82.96">
  <defs>
    <style>
      .cls-1 {
        fill: #e1d8f3;
      }

      .cls-2 {
        fill: #574f5e;
      }

      .cls-3 {
        fill: #c8cfdc;
      }

      .cls-4 {
        fill: #e99a78;
      }

      .cls-5 {
        fill: #ab9da9;
      }

      .cls-6 {
        fill: #fbe5c1;
      }

      .cls-7 {
        fill: #7d9dbc;
      }

      .cls-8 {
        fill: #fcbc31;
      }

      .cls-9 {
        fill: #e5a89b;
      }

      .cls-10 {
        fill: #bfccec;
      }

      .cls-11 {
        fill: #99b8dd;
      }

      .cls-12 {
        fill: #bf5806;
      }

      .cls-13 {
        fill: #041542;
      }

      .cls-14 {
        fill: #53d9f9;
      }

      .cls-15 {
        fill: #f5c0a6;
      }

      .cls-16 {
        fill: #dcf3fc;
      }

      .cls-17 {
        fill: #fee6d7;
      }

      .cls-18 {
        fill: #fffeff;
      }

      .cls-19 {
        fill: #fcd760;
      }

      .cls-20 {
        fill: #344e68;
      }

      .cls-21 {
        fill: #608bdc;
      }

      .cls-22 {
        fill: #4c6a81;
      }

      .cls-23 {
        fill: #7fb2d6;
      }

      .cls-24 {
        fill: #b1dff2;
      }

      .cls-25 {
        fill: #d0c7d3;
      }

      .cls-26 {
        fill: #fede35;
      }

      .cls-27 {
        fill: #f7c673;
      }

      .cls-28 {
        fill: #f9f4d9;
      }

      .cls-29 {
        fill: #e07f5b;
      }

      .cls-30 {
        fill: #5588a1;
      }

      .cls-31 {
        fill: #55778d;
      }

      .cls-32 {
        fill: #a7c8e1;
      }

      .cls-33 {
        fill: #e88516;
      }

      .cls-34 {
        fill: #71381b;
      }

      .cls-35 {
        fill: #cf8077;
      }

      .cls-36 {
        fill: #fdf2e9;
      }

      .cls-37 {
        fill: #fccc21;
      }

      .cls-38 {
        fill: #978a5b;
      }

      .cls-39 {
        fill: #40668d;
      }

      .cls-40 {
        fill: #33588c;
      }

      .cls-41 {
        fill: #f2cbbf;
      }

      .cls-42 {
        fill: #0d438d;
      }

      .cls-43 {
        fill: #545b69;
      }

      .cls-44 {
        fill: #08275f;
      }

      .cls-45 {
        fill: url(#_名称未設定グラデーション_52);
      }

      .cls-46 {
        fill: url(#_名称未設定グラデーション_50);
      }

      .cls-47 {
        fill: url(#_名称未設定グラデーション_51);
      }

      .cls-48 {
        fill: #234269;
      }
    </style>
    <linearGradient id="_名称未設定グラデーション_50" data-name="名称未設定グラデーション 50" x1="109.21" y1="7.67" x2="25.12" y2="66.31" gradientUnits="userSpaceOnUse">
      <stop offset=".35" stop-color="#5e8aaf"/>
      <stop offset="1" stop-color="#6da3c5"/>
    </linearGradient>
    <linearGradient id="_名称未設定グラデーション_52" data-name="名称未設定グラデーション 52" x1="111.64" y1="25.31" x2="106.48" y2="31.89" gradientUnits="userSpaceOnUse">
      <stop offset="0" stop-color="#fcc25c"/>
      <stop offset="1" stop-color="#f6a636"/>
    </linearGradient>
    <linearGradient id="_名称未設定グラデーション_51" data-name="名称未設定グラデーション 51" x1="83.41" y1="9.33" x2="74.76" y2="19.29" gradientUnits="userSpaceOnUse">
      <stop offset="0" stop-color="#fbc15d"/>
      <stop offset="1" stop-color="#f29e1d"/>
    </linearGradient>
  </defs>
  <g id="_生成オブジェクト" data-name="生成オブジェクト">
    <path class="cls-3" d="M129.93,41.92c1.59,1.06,5.39,2.17,2.42,4.31l-64.52,36.18c-2.36.7-4.92.85-7.18-.26L.7,48.19c-2.49-2.19,2.33-3.42,3.59-4.44l56.22,31.74c2.48,1.45,5.25,1.7,7.97.78l61.45-34.35Z"/>
    <path class="cls-30" d="M80.04,6.4c-.09,0-.2.02-.26,0-1.79-.55-2.86-2.34-4.96-2.22-.38.02-.69.19-1.04.26-.78.16-1.25.06-2.02.52-.64.38-4.77,4.96-5.03,5.62,0,.01-.08-.05-.13.26-1.41-.78-2.45,2.76-3.27,3.79-1.04,1.32-2.97,2.3-4.05,3.4-2.47-1.06-4.79-3.64-7.64-2.87l-33.56,18.81c-.33.31-.76.49-.98.91-.36.68-.21.7-.26,1.44,0,.04,0,.09,0,.13-.97.45-1.38.77-1.44,1.7,0,.12-.22.3-.13.59.23.71,3.95,2.8,4.83,3.33l-1.04,2.22c-2.59-1.49-9.75-4.91-11.56-6.53-1.41-1.27-.53-1.97.33-3.13C27.27,22.5,48.37,12.21,67.83,0h1.44l10.77,6.4Z"/>
    <path class="cls-46" d="M131.11,36.44l-23.51,13.71-38.07,21.42c-5.44,3.16-12.33-2.39-17.24-5.09-13.93-7.67-28.13-15.53-41.79-23.51-.21-.12-1.71-1.54-1.89-1.37v.46c-1.75-1.01-3.88-1.73-5.22-3.27.19-2.2,2.71-3.1,4.44-4.18-.86,1.17-1.74,1.87-.33,3.13,1.81,1.62,8.96,5.04,11.56,6.53,15.21,8.73,30.55,17.28,45.91,25.73h1.44l58.9-33.04c.42-.39.72-.61.59-1.24-.16-.77-5.8-3.4-6.66-4.24v-.13c.58-.01,2.41-1.17,2.61-1.18.7-.02,7.37,4.55,8.69,4.96.47.44.5.7.59,1.31Z"/>
    <path class="cls-30" d="M107.86,22.46s-.25.24-.26.26c-1.42-.4-4.51-3.13-5.81-2.87-.07.01-1.07.67-1.24.78l-9.4-5.49c.4-.35,2.23-.57,1.83-1.44.03.02.1-.02.13,0,4.98,2.8,9.83,5.86,14.76,8.75Z"/>
    <path class="cls-22" d="M120.79,29.65c.49.08.6.31,1.04.39v.13c-.2,0-2.04,1.16-2.61,1.18-.66.01-.89-.47-1.31-.65.82-.42,2.04-1.18,2.87-1.04Z"/>
    <path class="cls-32" d="M107.6,50.15h.65c-12.21,6.88-26.01,15.81-38.46,21.68-2,.94-3.45,1.43-5.75,1.18-18.22-9.56-36.25-19.78-54.13-30.04-.25-.14-.55-.25-.78-.39-.13-.08-.34-.41-.52-.52v-.46c.18-.17,1.69,1.25,1.89,1.37,13.67,7.98,27.87,15.84,41.79,23.51,4.91,2.71,11.8,8.26,17.24,5.09l38.07-21.42Z"/>
    <g>
      <path class="cls-40" d="M131.11,36.96c.13,1.6.36,4.02-1.18,4.96l-61.45,34.35c-2.71.91-5.49.66-7.97-.78L4.29,43.75c-.2-.32-.68-.43-.78-.85-.05-.2-.16-3.8-.13-4.11,1.35,1.54,3.48,2.25,5.22,3.27.19.11.39.45.52.52-2.3-.03-.34,3.43.98,3.13,1.07-.24.15-2.14-.2-2.74,17.88,10.26,35.91,20.48,54.13,30.04,2.29.26,3.74-.23,5.75-1.18,12.45-5.87,26.25-14.8,38.46-21.68,7.65-4.31,15.49-8.42,22.86-13.19Z"/>
      <path class="cls-21" d="M131.11,36.96c-7.36,4.77-15.2,8.88-22.86,13.19h-.65l23.51-13.71c.02.17-.01.35,0,.52Z"/>
      <path class="cls-13" d="M5.4,41.66c.14.09.6.66.39.78-.36.22-.63-.5-.39-.78Z"/>
      <path class="cls-44" d="M15.72,47.67c.04.11.17.77.13.78-.41.18-.47-.55-.13-.78Z"/>
      <path class="cls-7" d="M13.11,45.97c.22-.1.28.33.13.39-.22.1-.28-.33-.13-.39Z"/>
    </g>
    <path class="cls-39" d="M100.55,20.64c-.95.65-1.89,2.05-2.87,2.74-.11-.08-.7-.17-.85-.13-.5.15-2.71,3.97-3.07,4.7-.3.09-4.4,3.43-4.96,3.92-2.54-1.21-5.21-4-8.16-3.13-10.86,6.97-24.22,12.35-34.68,19.72-1.04.74-2.52,1.26-1.83,3,.02.15-.1.11-.13.13-.79.53-1.6,1.07-1.57,2.09.04,1.19,1.03,1.64,1.89,2.22,2.21,1.48,18.92,10.99,20.37,11.1.5.04,1.46-.04,1.96-.13,1.36-.24,15.39-7.88,16.85-9.01.59-.45.68-.45.59-1.31,5.38-2.97,15.01-7.56,19.33-11.23.55-.46,1.1-.84,1.7-1.24l-1.7-1.37c-.18-2.14-.35-1.58-1.96-2.61-.41-.26-.88-.56-1.31-.78,1.96-.64,3.94-1.26,5.88-1.96,4.55-1.65,8.9-3.64,13.19-5.88.86.84,6.5,3.47,6.66,4.24.13.63-.16.85-.59,1.24l-58.9,33.04h-1.44c-15.36-8.45-30.7-17-45.91-25.73l1.04-2.22c2.31,1.38,13.62,8.12,15.35,8.23,2.91.18,8.39-3.35,11.1-4.83,7.55-4.12,14.97-8.56,22.46-12.8.94-.53,3.72-1.61,4.31-2.09.33-.27,1.05-1.89.98-2.22-.12-.55-1.85-.87-1.83-1.7-.18-1.51-1.64-2.02-3-2.74,2.67-1.15,5.51-1.88,8.23-2.87,4.56-1.66,9.06-3.54,13.32-5.88h.13l9.4,5.49Z"/>
    <path class="cls-44" d="M16.83,36.44c-.03,1.08-.17,2.07.65,2.87-.27-.15-1.04-.31-1.37-.52-.25-.16-.42-.54-.72-.65.05-.93.47-1.24,1.44-1.7Z"/>
    <path class="cls-40" d="M117.92,30.69c.42.19.65.67,1.31.65v.13c-4.29,2.23-8.64,4.23-13.19,5.88.08-.38-.54-.29-.72-.26-1.44.24-5.65,1.73-6.79,1.31-.19-.07-.4-.16-.2-.39,2.94-1.23,6.95-3.6,9.8-5.22,3.09.54,6.76-.59,9.4-2.22.06.03.19.04.39.13Z"/>
    <path class="cls-40" d="M89.19,11.36c.23.08,1.73,1.16,2.22,1.44.23.13.59.42.78.52l-2.22,1.11,1.04.72c-4.26,2.33-8.76,4.22-13.32,5.88.07-.36-.39-.29-.59-.26-2.1.35-5.19.96-7.25,1.44,1.28-.74,2.62-1.38,3.92-2.09,1.14-.63,2.26-1.31,3.4-1.96.87-.5,1.87-.93,2.74-1.44,3.17.45,6.32-.91,9.21-2.09v-.52l-2.81-1.44c.71-.39,2.04-1.59,2.87-1.31Z"/>
    <path class="cls-44" d="M77.69,21.03c-2.72.99-5.56,1.73-8.23,2.87-.43-.23-1.14-.59-1.57-.78.59-.41,1.26-.75,1.96-.91,2.06-.48,5.15-1.09,7.25-1.44.2-.03.66-.1.59.26Z"/>
    <path class="cls-22" d="M117.53,30.56c-2.64,1.63-6.32,2.76-9.4,2.22,2.18-1.25,4.19-2.84,6.4-4.05.94.69,1.96,1.32,3,1.83Z"/>
    <path class="cls-20" d="M120.27,29.26c.19.12.46.14.52.39-.84-.14-2.05.63-2.87,1.04-.2-.09-.33-.1-.39-.13-1.05-.51-2.07-1.14-3-1.83.62-.34,2.16-1.42,2.81-1.31.17.03,2.55,1.58,2.94,1.83Z"/>
    <path class="cls-44" d="M106.03,37.35c-1.93.7-3.92,1.32-5.88,1.96-.56-.29-2.06-.99-2.61-1.18.26.02.55-.03.78-.13-.21.23,0,.32.2.39,1.14.42,5.35-1.07,6.79-1.31.18-.03.79-.12.72.26Z"/>
    <path class="cls-31" d="M92.97,13.71c.4.87-1.43,1.08-1.83,1.44h-.13l-1.04-.72,2.22-1.11c.24.14.54.25.78.39Z"/>
    <path class="cls-22" d="M86.31,12.67l2.81,1.44v.52c-2.89,1.18-6.03,2.54-9.21,2.09,2.18-1.27,4.17-2.81,6.4-4.05Z"/>
    <g>
      <path class="cls-44" d="M9.13,42.58c.24.14.54.25.78.39.34.61,1.26,2.51.2,2.74-1.32.29-3.28-3.16-.98-3.13Z"/>
      <path class="cls-40" d="M9.06,43.23c1.03.21,1.18,2.42.13,1.83-.48-.27-.64-1.39-.13-1.83Z"/>
    </g>
    <path class="cls-48" d="M45.04,54.98c1.73,1.52,14.65,8.9,17.04,9.93,2.06.88,4.41,1.01,6.53.26,3.78-1.34,11.48-6.42,15.48-8.62.09.85,0,.85-.59,1.31-1.46,1.13-15.48,8.77-16.85,9.01-.5.09-1.46.17-1.96.13-1.46-.11-18.16-9.62-20.37-11.1-.86-.58-1.86-1.03-1.89-2.22l2.61,1.31Z"/>
    <path class="cls-44" d="M45.04,54.98l-2.61-1.31c-.03-1.02.78-1.56,1.57-2.09.36,1.64-.35,2.17,1.04,3.4Z"/>
    <path class="cls-44" d="M74.3,28.34c-.62.41-1.23.86-1.83,1.31-.06-.9.08-1.84,0-2.74,0-.09.01-.18,0-.26-.02.83,1.71,1.15,1.83,1.7Z"/>
    <path class="cls-48" d="M103.42,45.32c-.04-.82.06-1.66,0-2.48,0-.04,0-.09,0-.13l1.7,1.37c-.59.41-1.15.78-1.7,1.24Z"/>
    <g>
      <path class="cls-48" d="M74.3,28.34c.07.33-.65,1.95-.98,2.22-.59.48-3.37,1.56-4.31,2.09-7.49,4.24-14.91,8.67-22.46,12.8-2.71,1.48-8.19,5.01-11.1,4.83-1.73-.1-13.04-6.84-15.35-8.23-.89-.53-4.6-2.62-4.83-3.33-.09-.29.12-.47.13-.59.3.12.46.49.72.65.33.21,1.1.38,1.37.52,4.76,2.57,10.9,7.14,15.67,9.01,1.47.58,2.62.84,4.24.65,3.34-.38,20.79-11.19,25.01-13.58,3.33-1.89,6.99-3.48,10.06-5.75.6-.44,1.21-.89,1.83-1.31Z"/>
      <g>
        <g>
          <path class="cls-45" d="M109.17,22.07l7.18,4.96c-3.05,1.29-7.67,4.51-10.58,6.4-1.2-.72-1.43-2.41-1.18-3.72.2-1.02,1.02-.76.52-2.29-.05-.17.09-.44-.26-.52,0-.04,0-.09,0-.13,1.05-.55,1.69-1.73,2.68-2.35.25-.16,1.05.53.85-.65-.06-.35-.22-.22-.33-.52-.13.32-.55.36-.85.52.23-.23.3-.94.39-1.04.02-.02.25-.25.26-.26.05-.04,1.13-.32,1.31-.39Z"/>
          <path class="cls-33" d="M121.71,29.52c-.71.05-.71-1.15-1.04-1.63-.79-1.12-1.61-1.36-2.87-.78.45.76,1.61.47,1.76,1.37l.13-.26c.17.46.62.09.59,1.04-.39-.24-2.77-1.8-2.94-1.83-.64-.11-2.19.97-2.81,1.31-2.21,1.21-4.22,2.8-6.4,4.05-2.84,1.63-6.86,3.99-9.8,5.22-.23.1-.53.15-.78.13-.2-.07-.25-.13-.26-.13-.65-.36-1.6-1.44-2.22-.91-.44.37-.85,1.26-1.04,1.83-.1.31-.08.38-.13.65,0,.05-.36.53,0,.65-.06.16-.25.17-.39.26-.21.08-.44-.23-.52-.26.08-.29-.07-.44-.13-.65,0-.46.17-.98.39-1.37.67-1.18,6.2-5.17,7.64-6.2.22-.16.84-.64,1.11-.52.01.03,0,.09,0,.13.06.27-.43.64.2.78.18.04.75-.35.85-.46.14-.16,2.03-3.45,2.09-3.66s-.04-.6,0-.85c.5,1.52-.32,1.27-.52,2.29-.26,1.31-.03,3.01,1.18,3.72-.3.19-.66.33-.91.59.04.12.62-.03.72-.07,2.77-1.14,6.56-4.51,9.53-6.01s6.42-3.37,6.6,1.57Z"/>
          <path class="cls-8" d="M116.35,27.03l-7.18-4.96c1.17-.45,2.16-.91,3.46-.52.4.12,6.89,4.01,7.18,4.31.07.07.26.18.13.26-1.26,0-2.45.43-3.59.91Z"/>
          <path class="cls-33" d="M121.71,29.52s.26.25.13.52c-.44-.09-.55-.31-1.04-.39-.06-.25-.33-.27-.52-.39.03-.95-.42-.58-.59-1.04l-.13.26c-.15-.9-1.32-.61-1.76-1.37,1.27-.58,2.09-.34,2.87.78.34.48.34,1.68,1.04,1.63Z"/>
          <path class="cls-19" d="M107.6,22.72c-.09.11-.16.82-.39,1.04-1.04.58-1.86,1.69-2.74,2.48l-6.66-2.61c-.02-.05-.12-.25-.13-.26.98-.69,1.92-2.1,2.87-2.74.17-.12,1.17-.77,1.24-.78,1.3-.25,4.39,2.47,5.81,2.87Z"/>
          <path class="cls-18" d="M108.39,23.77c-.9-.25-2.97,1.59-3.4,2.29-.32.52-.1.56-.13.72,0,.04,0,.09,0,.13-.37,1.6-1.04,3.02-2.09,4.38-.17.22-.46.61-.78.33,0-.05.01-.1,0-.13-.21-.47-.81-.22-1.31-.52,0-.08-.02-.18,0-.26.03-.15.64-.94.78-1.18.31-.51.95-1.52,1.31-1.96.12-.14.19-.31.26-.39.7-.76,1.16-.67,1.44-.91.88-.79,1.71-1.9,2.74-2.48.3-.17.72-.2.85-.52.11.31.27.18.33.52Z"/>
          <path class="cls-5" d="M105.12,27.43c-.04.25.06.64,0,.85s-1.95,3.5-2.09,3.66c-.09.11-.67.5-.85.46-.63-.14-.14-.52-.2-.78.33.28.61-.1.78-.33,1.05-1.35,1.72-2.77,2.09-4.38.35.08.21.36.26.52Z"/>
          <path class="cls-33" d="M108.39,23.77c.2,1.18-.6.5-.85.65-.98.62-1.63,1.8-2.68,2.35.03-.15-.18-.2.13-.72.42-.7,2.5-2.53,3.4-2.29Z"/>
          <path class="cls-14" d="M92.71,38.66c-.12.39.03.56.13.91.06.21.21.37.13.65-1.27-.49-5.31-2.34-6.33-3.13-.34-.26-.68-.58-.72-1.04-.05-.64.28-.69.39-1.04l6.4,3.66Z"/>
          <path class="cls-42" d="M85.92,36.05c.04.47.38.78.72,1.04,1.02.8,5.07,2.65,6.33,3.13.08.03.31.35.52.26-1.81,1.13-6.81-2.19-8.62-3.27l-.91-.85c0-.46,1.55-.02,1.96-.33Z"/>
          <path class="cls-28" d="M101.99,31.48c-.27-.12-.89.37-1.11.52-1.44,1.03-6.97,5.02-7.64,6.2-.22.39-.39.91-.39,1.37-.11-.35-.25-.52-.13-.91.13-.45,1.43-1.84,1.83-2.22,1.93-1.82,4.77-3.43,6.92-5.03l-.78-.46c.49.31,1.1.05,1.31.52Z"/>
          <path class="cls-40" d="M97.28,38.01c-.22-.07-.74-.27-.91-.26l-1.31-.65c.62-.53,1.57.55,2.22.91Z"/>
          <path class="cls-19" d="M95.19,28.21s.15.23.52.39c.21.09.44.17.65.26,1.43.61,2.82,1.35,4.31,1.83-.02.08,0,.18,0,.26l.78.46c-2.15,1.6-4.99,3.2-6.92,5.03-2.28-1.05-4.43-2.39-6.66-3.53-.01-.08.02-.21,0-.26.47-.1.64-.54.91-.78.57-.49,4.66-3.83,4.96-3.92.58-.17,1,.09,1.44.26Z"/>
          <path class="cls-18" d="M97.68,23.38s.11.21.13.26c.03.08-.02.27,0,.39l-2.61,4.18c-.43-.17-.85-.43-1.44-.26.36-.73,2.57-4.55,3.07-4.7.15-.04.74.05.85.13Z"/>
          <path class="cls-19" d="M104.47,26.25c-.27.25-.74.16-1.44.91-1.16-.52-2.59-1.8-3.92-1.44-.97-.46-1.39.9-1.96,1.83-.26.43-.55.86-.78,1.31-.21-.09-.44-.17-.65-.26.39-1.57,2.32-2.95,2.09-4.57-.02-.12.03-.31,0-.39l6.66,2.61Z"/>
          <path class="cls-22" d="M99.11,25.73c1.21.58,2.38,1.35,3.66,1.83-.35.44-.99,1.45-1.31,1.96l-4.31-1.96c.57-.93.99-2.29,1.96-1.83Z"/>
          <path class="cls-48" d="M101.46,29.52c-.15.24-.76,1.03-.78,1.18-1.49-.48-2.88-1.22-4.31-1.83.23-.45.52-.87.78-1.31l4.31,1.96Z"/>
          <path class="cls-20" d="M103.03,27.17c-.08.08-.14.25-.26.39-1.27-.48-2.44-1.25-3.66-1.83,1.32-.37,2.75.92,3.92,1.44Z"/>
          <path class="cls-8" d="M87.88,32.91c2.23,1.13,4.38,2.48,6.66,3.53-.4.38-1.7,1.77-1.83,2.22l-6.4-3.66c.03-.1-.02-.27,0-.39.37-.11.57-.77.78-1.04.12-.16.59-.3.52-.65.05.03.21-.03.26,0Z"/>
          <path class="cls-25" d="M95.72,28.6c-.38-.16-.49-.38-.52-.39l2.61-4.18c.23,1.62-1.7,3-2.09,4.57Z"/>
        </g>
        <g>
          <path class="cls-23" d="M87.88,32.65c.02.05-.01.18,0,.26-.05-.03-.21.03-.26,0-1.8-.91-4.46-3.1-6.46-2.61l-33.17,18.68c-1.06.73-2.22,1.48-1.04,2.74l16.98,9.8c1.22.25,2.31.27,3.53,0,11.16-6.29,22.59-12.23,33.5-18.87-.03-.2.05-.48,0-.65-.21-.77-5.8-3.25-6.92-3.07.19-.57.61-1.45,1.04-1.83l1.31.65c-.08,0-1.6.38-1.24.65,1.61.67,3.23,1.38,4.77,2.22.56.31.92.56,1.44.91.73.99.1,1.47-.72,2.09-10.55,5.05-20.97,12.78-31.48,17.63-1.5.7-2.71,1.12-4.44.91-1.27-.15-15.8-8.42-17.5-9.66-1.52-1.12-2.21-1.84-.52-3.27l34.09-19.33c1.06-1.19,6.92,2.26,7.12,2.74Z"/>
          <path class="cls-24" d="M97.28,38.01s.06.06.26.13c.55.18,2.05.88,2.61,1.18.43.22.9.52,1.31.78-.54.63-1.22-.82-1.57.52-1.53-.84-3.15-1.55-4.77-2.22-.36-.27,1.16-.65,1.24-.65.17,0,.69.19.91.26Z"/>
          <path class="cls-23" d="M103.42,42.84c.06.82-.04,1.66,0,2.48-4.32,3.67-13.95,8.26-19.33,11.23-3.99,2.2-11.7,7.28-15.48,8.62-2.12.75-4.47.62-6.53-.26-2.4-1.02-15.31-8.41-17.04-9.93-1.4-1.23-.68-1.76-1.04-3.4.03-.02.15.02.13-.13.18.44,1.4,1.26,1.83,1.57,2.36,1.67,16.67,9.87,18.74,10.06,1.62.14,3.23-.23,4.7-.91,10.26-6.5,21.87-11.51,32.06-18.02.67-.43,1.33-.8,1.96-1.31Z"/>
          <path class="cls-24" d="M88.79,31.87c-.28.24-.45.69-.91.78-.2-.48-6.06-3.93-7.12-2.74l-34.09,19.33c-1.68,1.43-1,2.15.52,3.27,1.7,1.25,16.23,9.51,17.5,9.66,1.73.2,2.94-.22,4.44-.91,10.51-4.85,20.92-12.58,31.48-17.63.82-.62,1.45-1.1.72-2.09.07.05.2-.22.33-.13,1.11.78,0,1.83-.2,2.74-10.19,6.52-21.8,11.52-32.06,18.02-1.47.69-3.08,1.06-4.7.91-2.07-.18-16.38-8.38-18.74-10.06l1.04.07c-.83-.8-2.28-1.49-1.96-2.87.14-.58,1.48-1.04.91-1.76,10.45-7.38,23.82-12.75,34.68-19.72,2.95-.87,5.62,1.93,8.16,3.13Z"/>
          <path class="cls-16" d="M101.46,40.1c1.61,1.03,1.78.48,1.96,2.61,0,.04,0,.09,0,.13-.63.51-1.29.88-1.96,1.31.2-.91,1.3-1.97.2-2.74-.12-.09-.25.18-.33.13-.51-.35-.88-.61-1.44-.91.35-1.35,1.03.11,1.57-.52Z"/>
          <path class="cls-16" d="M45.96,48.45c.56.72-.78,1.18-.91,1.76-.32,1.38,1.13,2.07,1.96,2.87l-1.04-.07c-.43-.31-1.65-1.12-1.83-1.57-.69-1.74.79-2.27,1.83-3Z"/>
          <path class="cls-23" d="M87.1,33.56c-.21.27-.42.93-.78,1.04s-1.06-.08-1.63.13c-.53.19-1.49.87-1.89,1.31-.26-.19-.82-.38-.78-.85.07-1,4.15-2.64,5.09-1.63Z"/>
          <path class="cls-48" d="M86.31,34.61c-.02.12.03.3,0,.39-.11.35-.44.4-.39,1.04-.41.31-1.95-.13-1.96.33l.91.85c-.65-.39-1.51-.75-2.09-1.18.4-.43,1.37-1.12,1.89-1.31.57-.21,1.26-.02,1.63-.13Z"/>
          <g>
            <path class="cls-18" d="M87.62,32.91c.06.35-.4.49-.52.65-.95-1.01-5.03.63-5.09,1.63-.03.47.52.66.78.85.58.43,1.44.79,2.09,1.18,1.81,1.08,6.81,4.39,8.62,3.27.14-.09.33-.1.39-.26.05-.13-.04-.47,0-.65.05-.28.03-.35.13-.65,1.12-.18,6.71,2.3,6.92,3.07.05.17-.03.46,0,.65-10.91,6.64-22.34,12.58-33.5,18.87-1.21.27-2.31.25-3.53,0l-16.98-9.8c-1.17-1.26-.02-2.02,1.04-2.74l33.17-18.68c2.01-.48,4.66,1.7,6.46,2.61Z"/>
            <g>
              <path class="cls-34" d="M93.89,40.23c-.36-.12,0-.6,0-.65-.04.18.05.52,0,.65Z"/>
              <g>
                <path class="cls-24" d="M88.27,47.54c.28-.89,1.6-1,.46-1.96-1.32-.43-4.63-3.09-5.75-3.27-.6-.09-3.68,1.7-3.59,2.02l7.57,3.85c-.73.34-1.31,1.17-2.42.65l-12.02-6.79.33-.39s.18-.01.26,0c.39.29.52.77.78-.13.23-.81-1.4-1.45-2.15-1.44-.24,0-.51.67-.98.2l.07-.46c1.16,0,1.74.02,2.74.65.28.18.87,1.05,1.11,1.04.67-.01,2.59-1.57,3.4-1.76.15-.55-2.76-2.19-3.33-2.29-.38-.06-.97.58-1.24,0,.66-.24.81-.54,1.63-.26l14.37,8.23.46.98c-.44.55-1.14.75-1.7,1.11Z"/>
                <path class="cls-10" d="M57.12,46.76c.57-.12,1.19.36,1.7.52,1.5,1.36,15.1,7.43,15.08,8.29s-1.87.22-2.29.07c-2.59-1-12.07-6.1-14.37-7.71-.5-.35-1.18-.96-.13-1.18Z"/>
                <path class="cls-10" d="M60.13,45.19c.52-.08,1.82.66,2.35.91,2.16,1.04,12.59,6.33,13.84,7.44.4.36.44.41,0,.78-1.04.35-4.84-1.88-6.01-2.48-1.97-1.01-9.06-4.5-10.32-5.62-.49-.44-.74-.9.13-1.04Z"/>
                <path class="cls-10" d="M62.61,43.75c1.55-.18,13.75,7.92,16.33,8.62.65.9-1.37.66-1.83.52-1.27-.37-5.66-3.09-7.18-3.92-.91-.49-8.1-4.3-8.03-4.77.02-.14.61-.44.72-.46Z"/>
                <path class="cls-10" d="M67.57,40.88c.53-.11.99.2,1.44.39,4.85,2.02,9.83,6.3,14.89,8.23.7.7-.62.86-1.18.78-.86-.11-14.2-7.57-15.15-8.36-.46-.38-.85-.86,0-1.04Z"/>
                <path class="cls-10" d="M65.09,42.45c.59-.12,1.63.5,2.22.78,4.66,2.21,9.14,5.69,13.97,7.71.42.3.11.67-.26.78-.91.27-4.2-1.68-5.22-2.22-2.79-1.47-8.38-4.27-10.71-6.01-.5-.37-.82-.87,0-1.04Z"/>
                <path class="cls-10" d="M54.25,48.32c.48-.1.77.12,1.18.26,1.72.61,11.92,6.19,13.45,7.31.67.49,1.85,1.74.26,1.57-.85-.09-14.15-7.38-15.02-8.1-.54-.44-.71-.87.13-1.04Z"/>
                <path class="cls-24" d="M73.25,37.61c.38.59-1.52,1.23-1.44,1.37,1.13.35,2.54.69,3.2,1.76-1.07-.64-2.58-1.9-3.85-1.24,1.35.07,3.11.54,3.53,2.02-.24,0-.83-.86-1.11-1.04-1-.63-1.58-.65-2.74-.65l-.07.46c.47.47.74-.19.98-.2.75-.02,2.39.63,2.15,1.44-.5-.68-1.27-1.21-2.15-1.18l-.13.39c.72.07,1.02.56,1.5.91-.08-.01-.22.02-.26,0-.54-.31-.61-.85-.72.13-.49-.3-2.96-1.24-2.68-2.02.07-.2,3.36-1.97,3.79-2.15Z"/>
                <path class="cls-32" d="M73.91,41.53c-.26.9-.39.42-.78.13-.48-.36-.78-.84-1.5-.91l.13-.39c.88-.03,1.65.49,2.15,1.18Z"/>
                <g>
                  <path class="cls-23" d="M88.27,47.54c-.39.25-.88.45-1.31.65l-7.57-3.85c-.08-.32,3-2.12,3.59-2.02,1.12.17,4.43,2.84,5.75,3.27,1.14.96-.18,1.07-.46,1.96Z"/>
                  <path class="cls-24" d="M82.72,42.58c.21,0,3.01,1.94,3.59,2.02-1.17.24-1.96.55-1.89,1.89l-4.38-2.29c.41-.14,2.51-1.64,2.68-1.63Z"/>
                </g>
                <g>
                  <path class="cls-11" d="M73.51,37.48c.28.58.86-.06,1.24,0,.57.09,3.48,1.73,3.33,2.29-.81.19-2.73,1.75-3.4,1.76-.42-1.48-2.18-1.95-3.53-2.02,1.28-.66,2.79.6,3.85,1.24-.66-1.07-2.06-1.42-3.2-1.76-.08-.14,1.82-.79,1.44-1.37.03-.01.09-.07.26-.13Z"/>
                  <path class="cls-24" d="M74.49,37.87c.33-.04,2.54,1.23,2.55,1.37-1.5,1.36-2.15.14-3.53-.65-.01-.09.92-.71.98-.72Z"/>
                </g>
              </g>
            </g>
          </g>
        </g>
      </g>
      <g>
        <g>
          <path class="cls-47" d="M80.83,6.4l7.71,4.44c-.56.22-2.88,1.47-3.53,1.83s-1.21.81-1.83,1.18c-.08.04-.19.09-.26.13-1.81,1.07-3.51,2.41-5.29,3.53-1.22.76-3.2,1.37-3.85,2.61-1.3.71-2.64,1.35-3.92,2.09-.7.16-1.37.5-1.96.91-.23-.11-.43-.09-.52-.13l-1.31-.91c1.03-.98,3.24-2.96,4.38-3.66.02-.01.22.25.46.13.85-.44,3.04-3.93,2.61-4.83,1.49-1.96,3.14-4.43,5.16-5.88.66-.47,1.35-.06,1.37-.91,0-.01.22.02,0-.26.28-.06.25-.13.26-.13.21-.08.43-.09.52-.13Z"/>
          <path class="cls-8" d="M88.79,10.58l-.07-.39c-2.33-1.35-4.79-2.6-6.86-4.31.81-.16,1.74-.24,2.55,0,.37.11,6.25,3.66,6.53,3.92.09.08.36.27.26.39l-2.42.39Z"/>
          <path class="cls-33" d="M93.1,13.71s-.1.02-.13,0c-.25-.14-.54-.26-.78-.39-.19-.11-.55-.4-.78-.52l.85.26c.5-1.42-1.97-3.16-3.07-1.7-.83-.28-2.17.91-2.87,1.31-2.23,1.24-4.22,2.78-6.4,4.05-.87.51-1.87.93-2.74,1.44l5.75-4.18c.08-.05.19-.09.26-.13.47.12,1.74-.64,1.83-1.18.65-.35,2.97-1.61,3.53-1.83.02,0,.25-.13.26-.13.07-.02,1.3-.26,1.37-.26,2.66-.14,2.91.75,2.94,3.27Z"/>
          <path class="cls-8" d="M88.79,10.58v.13s-.24.12-.26.13l-7.71-4.44c.29-.12.62-.44,1.04-.52,2.07,1.71,4.53,2.96,6.86,4.31l.07.39Z"/>
          <path class="cls-38" d="M80.04,6.4c.13,0,.27-.05.26.13-.01,0,.02.07-.26.13-.2.04-.27.3-.26-.13v-.13c.06.02.18,0,.26,0Z"/>
          <path class="cls-19" d="M73.78,4.44c.88,1.46,3.23,1.91,4.57,3-1.11.77-4.79,4.25-5.22,5.35-.34.05-1.19-.04-1.5-.13-1.16-.36-3.09-1.37-4.05-1.7-.05-.02-.63.22-.85-.39.26-.65,4.39-5.23,5.03-5.62.77-.46,1.24-.36,2.02-.52Z"/>
          <path class="cls-19" d="M63.59,14.76c.56.62,3.61,2.23,4.51,2.61.19.08,1.32.49,1.5.13.11.12.5.13.52.39-.86.2-4.88,3.63-5.62,4.44l-5.88-3.27s.1-.23.13-.26c.12-.14.25-.37.26-.39.2-.21.24-.38.26-.39,1.08-1.1,3-2.08,4.05-3.4.06.01.25.12.26.13Z"/>
          <path class="cls-26" d="M73.12,12.8c-.02.05.01.18,0,.26-.88-.14-1.06.18-1.57.78-.87-.68-2.91-1.55-3.92-1.31-.17.04-.35-.06-.52.07-.13.1-1.28,2.55-1.44,2.94-.09-.01-.55-.42-.78-.52.45-.39,1.73-2.43,1.83-2.94.08-.38-.14-.81-.13-.85.03-.12-.02-.27,0-.39.05-.31.13-.25.13-.26.22.61.8.37.85.39.96.33,2.89,1.34,4.05,1.7.31.09,1.17.18,1.5.13Z"/>
          <path class="cls-18" d="M66.59,10.84c-.02.12.03.27,0,.39l-1.96,3.66c-.23-.1-.86-.42-1.04-.13,0-.01-.2-.12-.26-.13.82-1.03,1.85-4.57,3.27-3.79Z"/>
          <path class="cls-19" d="M74.82,4.18c.6,1.41,3.19,1.52,4.05,2.87-.17.1-.35.27-.52.39-1.34-1.09-3.7-1.54-4.57-3,.35-.07.66-.24,1.04-.26Z"/>
          <path class="cls-37" d="M79.78,6.4v.13c-.2.39-.66.37-.91.52-.85-1.35-3.44-1.46-4.05-2.87,2.1-.12,3.18,1.67,4.96,2.22Z"/>
          <path class="cls-33" d="M70.64,18.02s-.07.39.26.52c-.24.12-.44-.14-.46-.13-1.14.7-3.35,2.68-4.38,3.66-.03.03-.17-.09-.39.13-.23.24-.38.61-.52.78-.08.1-.24.18-.39.39-.21.31-.34.61-.52.91-.4.64.24.38-.65.91-.31.02-.42-.17-.39-.46.23-2.09,5.47-5.33,6.92-6.86.12-.03.31-.23.46-.13.13.08.04.23.07.26Z"/>
          <path class="cls-33" d="M80.04,6.92c-.02.85-.71.44-1.37.91-2.02,1.44-3.67,3.91-5.16,5.88-.06-.12-.11-.25-.26-.26.03-.11-.03-.29,0-.39.44-1.31,5.15-5.93,6.79-6.14Z"/>
          <path class="cls-27" d="M77.17,18.15c-1.13.65-2.25,1.33-3.4,1.96.65-1.24,2.63-1.85,3.85-2.61,1.78-1.11,3.48-2.45,5.29-3.53l-5.75,4.18Z"/>
          <path class="cls-5" d="M73.51,13.71c.42.91-1.76,4.39-2.61,4.83-.33-.14-.23-.48-.26-.52.92-.43,2.38-2.88,2.74-3.85.01-.03-.27-.26-.13-.72.15.01.21.14.26.26Z"/>
          <path class="cls-28" d="M80.04,6.66c.22.28,0,.25,0,.26-1.64.21-6.35,4.83-6.79,6.14h-.13c.01-.08-.02-.21,0-.26.44-1.11,4.11-4.58,5.22-5.35.17-.12.35-.29.52-.39.26-.15.71-.14.91-.52,0,.43.06.17.26.13Z"/>
          <path class="cls-6" d="M83.18,13.84c.62-.36,1.19-.83,1.83-1.18-.09.53-1.36,1.29-1.83,1.18Z"/>
          <path class="cls-2" d="M66.07,22.07l1.31.91c-.54-.23-1.19-.34-1.7-.78.22-.22.36-.1.39-.13Z"/>
          <path class="cls-12" d="M91.41,12.8c-.49-.27-1.99-1.36-2.22-1.44,1.1-1.46,3.57.28,3.07,1.7l-.85-.26Z"/>
          <path class="cls-8" d="M64.5,22.33c-.6.66-1.02,1.4-1.57,2.09-.52-.9-4.82-2.32-5.49-3.53.01-.02.03-.25.13-.39.18-.24.28-.75.52-1.04,0,0,.06-.05.13-.13.04-.04.36-.22.39-.26l5.88,3.27Z"/>
          <path class="cls-18" d="M73.12,13.06h.13c-.03.1.03.29,0,.39-.14.45.14.68.13.72-.37.97-1.82,3.42-2.74,3.85-.02-.03.06-.18-.07-.26-.15-.1-.33.1-.46.13-.02-.26-.41-.27-.52-.39-.21-.22-.11-.38-.13-.39.42-.33.63-.87.91-1.31.32-.5.72-1.27,1.04-1.7.03-.04.1-.23.13-.26.5-.61.69-.93,1.57-.78Z"/>
          <path class="cls-19" d="M64.63,14.89c.09.04.17.09.26.13.23.1.7.51.78.52.04,0,.09,0,.13,0,.89.61,2.9,1.04,3.66,1.57.02.01-.08.17.13.39-.18.36-1.31-.05-1.5-.13-.89-.38-3.94-2-4.51-2.61.19-.29.82.03,1.04.13Z"/>
          <path class="cls-28" d="M70.12,17.89c-1.45,1.53-6.69,4.76-6.92,6.86-.03.29.08.48.39.46-.15.09-.36.23-.52.26,0-.21-.05-.9-.13-1.04.55-.69.97-1.43,1.57-2.09.74-.81,4.75-4.24,5.62-4.44Z"/>
          <path class="cls-22" d="M67.64,12.54l3.79,1.57c-.32.42-.72,1.2-1.04,1.7-1.27-.61-3.45-.09-4.57-.26-.04,0-.09,0-.13,0,.15-.38,1.3-2.84,1.44-2.94.18-.13.35-.02.52-.07Z"/>
          <path class="cls-20" d="M71.56,13.84s-.1.22-.13.26l-3.79-1.57c1.01-.24,3.05.63,3.92,1.31Z"/>
          <path class="cls-25" d="M64.89,15.02c-.09-.04-.17-.09-.26-.13l1.96-3.66s.21.46.13.85c-.1.51-1.38,2.54-1.83,2.94Z"/>
          <path class="cls-14" d="M62.94,24.42c.08.14.13.83.13,1.04-.12.02-.27,0-.39,0-1.27-1.33-3.5-1.96-4.9-3-.34-.25-.84-.55-.72-1.04.16-.13.27-.35.39-.52.67,1.2,4.96,2.63,5.49,3.53Z"/>
          <path class="cls-29" d="M58.1,19.46c-.24.29-.34.8-.52,1.04-.74-.75-2.33.47-3,.91-.18-.14-.79-.32-.78-.72.99-1.12,2.89-2.14,4.31-1.24Z"/>
          <path class="cls-48" d="M57.58,20.5c-.1.14-.12.38-.13.39-.13.17-.24.39-.39.52-.14.12-1.08.4-1.31.65-.39-.25-.73-.31-1.18-.65.68-.45,2.27-1.66,3-.91Z"/>
          <path class="cls-44" d="M70.38,15.8c-.28.44-.49.97-.91,1.31-.76-.52-2.77-.96-3.66-1.57,1.12.17,3.3-.35,4.57.26Z"/>
          <path class="cls-43" d="M57.06,21.42c-.12.5.38.79.72,1.04,1.39,1.04,3.62,1.67,4.9,3-1.57.04-5.44-2.47-6.92-3.4.23-.25,1.16-.53,1.31-.65Z"/>
        </g>
        <g>
          <path class="cls-15" d="M59.28,18.02s-.06.18-.26.39c-2.68-.72-6.36-5.42-8.49-1.57-10.37,5.31-20.32,11.97-30.76,17.24-2.53,1.44-1.48,2.39.39,3.66,1.69,1.14,13.88,8.09,15.41,8.23,1.03.09,2.02-.13,3-.39l32.45-18.42c-.07.33-.38,1.03,0,.91-2.93,2-6.43,3.71-9.53,5.49-6.12,3.49-16.02,10.22-22.14,12.54-1.7.64-3.54.71-5.29.26-2.71-.7-11-6.08-13.84-7.84-1.01-1.42-3.48-2.53-1.57-4.38l-1.57.72c.22-.42.65-.61.98-.91L51.64,15.15c2.85-.77,5.17,1.82,7.64,2.87Z"/>
          <path class="cls-4" d="M20.23,38.53c2.85,1.75,11.13,7.14,13.84,7.84-.43.67-.03,2.02-.91,1.96-4.77-1.87-10.91-6.44-15.67-9.01-.82-.8-.69-1.8-.65-2.87,0-.04,0-.09,0-.13,1.03.94,2.23,1.5,3.4,2.22Z"/>
          <path class="cls-17" d="M20.23,38.53c-1.16-.72-2.37-1.28-3.4-2.22.05-.74-.1-.76.26-1.44l1.57-.72c-1.92,1.84.56,2.95,1.57,4.38Z"/>
          <path class="cls-41" d="M67.38,22.99c.09.04.29.02.52.13.43.2,1.14.56,1.57.78,1.37.72,2.82,1.24,3,2.74.01.08,0,.18,0,.26-.35.67-.92.82-1.44,1.18-.38.11-.07-.58,0-.91.04-.2-.06-.3.26-.26.68.52,1.29-.53.2-1.44-1.2-1-3.47-1.1-4.9-1.83-.46-.23-.99-.4-1.44-.65.14-.18.29-.55.52-.78.51.44,1.16.55,1.7.78Z"/>
          <path class="cls-29" d="M62.41,35.39c-4.22,2.4-21.68,13.21-25.01,13.58-1.62.18-2.77-.07-4.24-.65.89.06.49-1.29.91-1.96,1.75.45,3.59.38,5.29-.26,6.12-2.31,16.01-9.05,22.14-12.54l.91,1.83Z"/>
          <path class="cls-29" d="M72.47,29.65c-3.07,2.26-6.72,3.86-10.06,5.75l-.91-1.83c3.11-1.77,6.61-3.49,9.53-5.49.51-.35,1.09-.51,1.44-1.18.08.9-.06,1.84,0,2.74Z"/>
          <path class="cls-17" d="M59.02,18.42s-.15.26-.26.39c-1.88-.78-4.94-3.53-6.99-2.87-.07.02-.95.77-1.24.91,2.13-3.85,5.81.85,8.49,1.57Z"/>
          <path class="cls-3" d="M65.94,24.03l-1.7.26c.19-.3.31-.6.52-.91.47-.01.88.5,1.18.65Z"/>
          <path class="cls-36" d="M71.29,26.9s-.07-.41-.13-.46c-1.22-1.05-3.06-2.04-4.57-2.81,1.42.73,3.7.83,4.9,1.83,1.09.91.48,1.96-.2,1.44Z"/>
          <g>
            <path class="cls-18" d="M58.23,19.33c-.07.08-.12.12-.13.13-1.42-.9-3.32.12-4.31,1.24,0,.4.61.58.78.72.44.35.78.41,1.18.65,1.48.92,5.35,3.44,6.92,3.4.13,0,.27.02.39,0,.16-.03.38-.17.52-.26.89-.53.26-.27.65-.91l1.7-.26c.72.38,4.57,1.94,4.57,2.68l-.59.72-32.13,18.02c-1.13.17-2.3.23-3.4-.13-1.02-.33-13.87-7.74-14.76-8.49-1.01-.86-1.02-1.45.13-2.22l32.13-18.02c1.7-.46,4.39,1.31,5.88,2.22.21.13.5.21.46.52Z"/>
            <g>
              <path class="cls-4" d="M58.76,18.81s-.1.23-.13.26c-.03.04-.36.22-.39.26.04-.31-.24-.39-.46-.52-1.49-.91-4.17-2.68-5.88-2.22l-32.13,18.02c-1.15.77-1.14,1.36-.13,2.22.89.75,13.74,8.15,14.76,8.49,1.09.36,2.27.3,3.4.13l32.13-18.02.59-.72c0-.74-3.85-2.29-4.57-2.68-.29-.16-.71-.67-1.18-.65.15-.22.32-.3.39-.39.45.26.98.42,1.44.65,1.51.77,3.35,1.76,4.57,2.81.06.05.11.44.13.46-.32-.04-.22.07-.26.26l-32.45,18.42c-.98.27-1.98.48-3,.39-1.53-.13-13.72-7.08-15.41-8.23-1.87-1.27-2.92-2.21-.39-3.66,10.43-5.27,20.38-11.93,30.76-17.24.29-.15,1.17-.89,1.24-.91,2.05-.65,5.11,2.1,6.99,2.87Z"/>
              <path class="cls-1" d="M30.87,31.34c1.2-.14,11.94,6.81,14.11,7.31.84.98-.59.89-1.31.65-.98-.33-12.71-6.6-13.19-7.18-.37-.44-.11-.72.39-.78Z"/>
              <path class="cls-1" d="M28.78,32.52h.91c1.35,1.34,13.79,6.85,13.78,7.64-.02,1-2.02-.02-2.42-.2-1.95-.88-10.89-5.54-12.15-6.66-.28-.25-.52-.47-.13-.78Z"/>
              <path class="cls-1" d="M34.14,29.39c.32-.11.85.03,1.18.13.72.23,12.76,6.68,13.32,7.18.12.11.35.28.33.46-.41.6-1.19.26-1.76.07-1.19-.41-12.28-6.36-13.06-7.05-.29-.26-.49-.61,0-.78Z"/>
              <path class="cls-1" d="M26.95,33.56c.7-.11,1.1.13,1.7.39,1.17.51,11.82,6.4,12.41,6.92.79.7-.24.9-.91.78-.74-.12-12.36-6.68-13.06-7.31-.28-.25-.52-.47-.13-.78Z"/>
              <path class="cls-1" d="M32.57,30.43c1.09-.37,12.2,6.88,14.24,7.31.63.79-.26.88-.91.78-.75-.12-12.7-6.73-13.32-7.31-.3-.28-.59-.58,0-.78Z"/>
              <path class="cls-1" d="M37.92,27.43c.59-.09.92.07,1.44.26.95.36,12.25,6.57,12.8,7.05.13.12.33.27.33.46-.21,1.02-3.45-.84-3.98-1.11-2.63-1.31-7.8-3.98-10.06-5.62-.37-.27-1.05-.62-.52-1.04Z"/>
              <path class="cls-1" d="M36.36,28.47c.45-.07.67.13,1.04.26,1.2,1.32,13.45,6.62,13.39,7.38-.03.36-.94.37-1.24.33-.76-.1-12.9-6.66-13.45-7.18-.44-.42-.39-.68.26-.78Z"/>
              <path class="cls-1" d="M39.75,26.51c.46-.15,1.01.1,1.44.26,1.26.47,11.54,6.03,12.54,6.79.16.12.43.37.46.59-.19,1-2.89-.57-3.46-.85-2.05-.99-9.45-4.79-10.84-6.01-.28-.24-.67-.61-.13-.78Z"/>
              <path class="cls-1" d="M41.84,25.21c.64-.09,1,.05,1.57.26,1.09.41,11.71,6.31,12.41,6.92,1.21,1.07-.63.87-1.44.52-1.59-.68-11.21-6-12.28-6.92-.27-.24-.67-.52-.26-.78Z"/>
              <path class="cls-1" d="M24.86,34.61c.46-.15,1.02.1,1.44.26.76.29,11.5,6.33,12.02,6.79.7.62-.2.87-.78.78-.71-.1-11.76-6.36-12.54-7.05-.27-.24-.68-.61-.13-.78Z"/>
              <g>
                <path class="cls-35" d="M54.05,26.25c1.19.69,5.67,2.84,6.33,3.53.84.86-.04.92-.59,1.31l.72-.78c-1.69-.59-3.15-1.89-4.77-2.74-1.04-.55-2.02-1.55-3.07-.52-.08-.51,1.02-.8,1.37-.78Z"/>
                <g>
                  <path class="cls-9" d="M59.8,31.08c-2.6,1.81-2.72,1.26-5.22,0-.23-.46.03-.73,0-1.18.85-.37.53.2,1.04.52,1.45.92,1.44.26,3,.07-.26-.45-.81-.05-.85-.07-.25-.08-.15-.67-.39-.52-.06.03-.15,1.02-.78.91-.81-.14.63-1.26,0-1.31-.11.19-1.04.76-1.11.33l.59-.85-1.24.46c.19-.3.27-.7.39-.98.13-.32.32-.63.52-.91,1.62.85,3.08,2.15,4.77,2.74l-.72.78Z"/>
                  <path class="cls-35" d="M55.62,30.43c.06.06.35-.02.26-.2-.12-.23-.38.08-.26.2-.51-.33-.2-.9-1.04-.52-.01-.2.23-.51-.2-.65-.23-.08-.32.48-.59.07l1.44-.85c-.12.28-.21.68-.39.98l1.24-.46-.59.85c.07.43,1-.14,1.11-.33.63.04-.81,1.17,0,1.31.63.11.73-.88.78-.91.24-.15.14.44.39.52.04.01.59-.38.85.07-1.56.2-1.55.86-3-.07Z"/>
                  <path class="cls-35" d="M57.52,31.21s.29-.02.33.07c.1.22-.75.22-.33-.07Z"/>
                  <path class="cls-9" d="M55.62,30.43c-.12-.12.14-.43.26-.2.09.18-.2.26-.26.2Z"/>
                </g>
                <g>
                  <path class="cls-15" d="M54.05,26.25c-.36-.02-1.46.27-1.37.78,1.05-1.03,2.03-.02,3.07.52-.2.28-.39.6-.52.91l-1.44.85c.26.41.36-.15.59-.07.42.15.18.45.2.65.03.44-.23.71,0,1.18-3.87-1.96-7.55-4.39-11.36-6.46-.12-.41,3.45-2.35,4.11-2.29s5.74,3.34,6.73,3.92Z"/>
                  <path class="cls-35" d="M53.34,27.69c.07,0,1.14.5,1.11.59-.79-.12-1.24-.42-2.02-.07.64,1.37.8,0,1.04,0,.43,0-.05.74-.26.78-.28.05-1.23-.47-1.24-.59-.02-.18,1.29-.72,1.37-.72Z"/>
                  <g>
                    <path class="cls-9" d="M48.5,23.64c.69-.11,1.7.69,2.29.98-1,.79-2.63,2.52-3.92,1.44.68-.14,1.04.55,1.7-.13-.92-.68-1.5-1.42-2.48-.39.02-.42,2.26-1.87,2.42-1.89Z"/>
                    <path class="cls-15" d="M48.77,23.77c.11,0,1.53.83,1.76.98-1.42.9-1.91,1.33-3.27,0,0-.12,1.39-.98,1.5-.98Z"/>
                  </g>
                </g>
              </g>
            </g>
          </g>
        </g>
      </g>
    </g>
  </g>
</svg>