<?xml version="1.0" encoding="UTF-8"?>
<svg id="_レイヤー_1" data-name="レイヤー 1" xmlns="http://www.w3.org/2000/svg" xmlns:xlink="http://www.w3.org/1999/xlink" viewBox="0 0 121.32 80.21">
  <defs>
    <style>
      .cls-1 {
        fill: #c9e3ff;
      }

      .cls-2 {
        fill: #1ca4ba;
      }

      .cls-3 {
        fill: #ff93a2;
      }

      .cls-4 {
        fill: #93b2ce;
      }

      .cls-5 {
        fill: #77a1d5;
      }

      .cls-6 {
        fill: #7dd3c1;
      }

      .cls-7 {
        fill: #b32750;
      }

      .cls-8 {
        fill: #fdec68;
      }

      .cls-9 {
        fill: #e04461;
      }

      .cls-10 {
        fill: #39b0a9;
      }

      .cls-11 {
        fill: #f5871e;
      }

      .cls-12 {
        fill: #e7dcd8;
      }

      .cls-13 {
        fill: #89b5ee;
      }

      .cls-14 {
        fill: #c13134;
      }

      .cls-15 {
        fill: #ffc72f;
      }

      .cls-16 {
        fill: #3d8de0;
      }

      .cls-17 {
        fill: #fff;
      }

      .cls-18 {
        fill: #343530;
      }

      .cls-19 {
        fill: #3674ad;
      }

      .cls-20 {
        fill: #5041a9;
      }

      .cls-21 {
        fill: #c0a12d;
      }

      .cls-22 {
        fill: #d5a2d0;
      }

      .cls-23 {
        fill: #5c82b1;
      }

      .cls-24 {
        fill: #525752;
      }

      .cls-25 {
        fill: #bdbbb5;
      }

      .cls-26 {
        fill: #f45d72;
      }

      .cls-27 {
        fill: #ecdacb;
      }

      .cls-28 {
        fill: #dbdcdb;
      }

      .cls-29 {
        fill: #fcd533;
      }

      .cls-30 {
        fill: url(#_名称未設定グラデーション_71);
      }

      .cls-31 {
        fill: url(#_名称未設定グラデーション_72);
      }
    </style>
    <linearGradient id="_名称未設定グラデーション_71" data-name="名称未設定グラデーション 71" x1="78.03" y1="12.32" x2="99.44" y2="64.35" gradientUnits="userSpaceOnUse">
      <stop offset=".24" stop-color="#c7e1ff"/>
      <stop offset="1" stop-color="#91b7e3"/>
    </linearGradient>
    <linearGradient id="_名称未設定グラデーション_72" data-name="名称未設定グラデーション 72" x1="59.9" y1="26.47" x2="27.19" y2="58.97" gradientUnits="userSpaceOnUse">
      <stop offset="0" stop-color="#c8e1ff"/>
      <stop offset=".9" stop-color="#9bbee9"/>
    </linearGradient>
  </defs>
  <g id="_生成オブジェクト" data-name="生成オブジェクト">
    <path class="cls-30" d="M72.56,77.74c-.24-2.42-.17-4.9-.14-7.33,0-.4.3-1.54.28-1.62-.13-.5-2.1-.47-2.4-1.06,14.67-7.08,29.01-17.86,43.78-25.1.78-.62,1.64-1.3,2.04-2.26.68-1.62-.16-2.18-1.48-3.24l-39.55-22.84c-.02-.3-.08-.93-.42-.85.67-1.09.37-1.72.42-2.96,14.89,8.14,29.46,16.94,44.2,25.38.32.26,1.32,1.3,1.48,1.62.51,1.02.68,10.05.42,11.42-.19,1.03-1.48,2.07-2.33,2.61-15.61,7.4-30.79,19.08-46.32,26.23Z"/>
    <path class="cls-28" d="M7.7,45.31c.05,1.66-.3,3.39.56,4.86,15.86,9.63,32.3,18.66,48.5,27.85,1.62.89,3.38,1.47,5.22,1.69v.49c-5.64-.5-11.63.91-16.99-1.34L1.99,54.48c-5.65-4.59,2.18-7.42,5.71-9.16Z"/>
    <path class="cls-31" d="M50,12.6c-.02,1.25-.06,2.56,0,3.81L14.11,37.27c-1.08.8-1.31.94-1.34,2.26-.04,1.97,1.44,2.88,3.03,3.95,13.08,8.81,29.32,15.52,42.65,24.25.02.75-1.9.74-2.11,1.2-.16.34.47,1.55-.07,1.62L9.6,43.9l-1.9-2.4c.11-2.84-.28-3.85,2.19-5.78L50,12.6Z"/>
    <path class="cls-5" d="M58.46,67.73c.18.04.43.37.56.42-.42.27-2.22.51-2.4.92-.13.31.15,1.07.14,1.48-.05,2.49.04,4.99,0,7.47-16.2-9.18-32.65-18.22-48.5-27.85-.87-1.48-.51-3.21-.56-4.86-.04-1.25-.05-2.56,0-3.81l1.9,2.4,46.67,26.65c.54-.07-.09-1.28.07-1.62.21-.46,2.14-.45,2.11-1.2Z"/>
    <path class="cls-23" d="M72.42,70.41c-.02,2.43-.1,4.91.14,7.33-3.48,1.6-6.71,2.43-10.57,1.97-1.84-.22-3.6-.81-5.22-1.69.04-2.49-.05-4.99,0-7.47,4.04,2.68,11.58,2.51,15.65-.14Z"/>
    <path class="cls-19" d="M70.3,67.73c.29.59,2.27.56,2.4,1.06.02.08-.28,1.22-.28,1.62-4.07,2.66-11.61,2.82-15.65.14,0-.41-.27-1.17-.14-1.48.17-.41,1.98-.65,2.4-.92,3.46,1.44,7.96,1.18,11.28-.42Z"/>
    <path class="cls-13" d="M116.13,40.38c.04-1.06-.89-1.68-1.62-2.26l-39.41-22.7c-.01-.38.01-.87,0-1.13l39.55,22.84c1.32,1.06,2.16,1.62,1.48,3.24Z"/>
    <path class="cls-13" d="M50,17.68c-2.6,1.29-5.14,2.72-7.61,4.23-.57.35-1.29.52-1.83.99-.28.24-.46.48-.56.56-.31-.11-5.04,2.79-5.64,3.24-5.74,2.99-15.29,7.61-20.16,11.42-.53.41-1.16.73-1.41,1.41.03-1.31.26-1.45,1.34-2.26l35.88-20.87c.02.42-.02,1.04,0,1.27Z"/>
    <g>
      <path class="cls-28" d="M41.4,25.15c-.74.27-5.52,2.9-6.06,3.38-.35.31-.82.61-.35,1.13,4.56,2.18,9.03,4.63,13.32,7.26.04.37-.37.31-.42.35l-14.17-7.9-7.19,3.81.07.28c-.44,0-1.34.48-.78.85,4.62,2.12,9.24,4.55,13.47,7.26.05.31-.46.29-.56.35l-13.89-7.75-6.84,3.88,12.97,7.4c-.58.01-.73.07-1.34-.14l-10.15-5.36,4.65,2.96c1.52.38,6.3,3.86,7.47,3.67l26.72-13.68c.13.09.3.18.42.28.08.06-.19.48.21.56.11.02,1.31-.92,1.76-.56l-30.03,14.95c-4.61-2.97-10.52-5.18-14.95-8.32-.4-.28-1.61-1.19-1.55-1.69,4.87-3.81,14.42-8.43,20.16-11.42,1.31-.68,3.72-1.4,4.86-2.26.52-.39.67-.9.78-.99.17.06.15.48.49.7.39.25,1.58.37.92.99Z"/>
      <path class="cls-13" d="M30.68,48.13c-2.68.04-4.97-1.48-7.26-2.68-1.07-.56-7.33-4.14-7.68-4.72-.17-.29-.21-.63,0-.92,4.43,3.14,10.34,5.35,14.95,8.32Z"/>
      <path class="cls-17" d="M42.38,21.91l18.4,9.87c.18.22.22,1.3-.07,1.41-.45-.36-1.65.59-1.76.56-.41-.09-.13-.5-.21-.56l1.55-.92c-5.93-3.48-12.03-6.72-18.12-9.94l-1.34.7s-.3.08-.28-.14c.55-.47,1.26-.64,1.83-.99Z"/>
      <path class="cls-2" d="M47.88,37.27c-1.95,1.43-5.32,2.4-7.4,3.81l-13.89-7.61-.07-.28,7.19-3.81,14.17,7.9Z"/>
      <path class="cls-16" d="M35.33,28.53c.54-.48,5.33-3.12,6.06-3.38.32-.12.72-.33,1.06-.28,4.65,2.73,9.66,5.13,14.1,8.04l-7.19,3.52-14.03-7.9Z"/>
      <path class="cls-20" d="M38.72,41.93c-1.31.8-6.63,3.5-7.75,3.52l-12.97-7.4,6.84-3.88,13.89,7.75Z"/>
      <path class="cls-17" d="M40.55,22.89c-.01.22.24.11.28.14,5.24,3.78,12.07,6.29,17.48,9.87l-26.72,13.68c-1.17.19-5.95-3.28-7.47-3.67l-4.65-2.96,10.15,5.36c.61.21.76.15,1.34.14,1.12-.03,6.45-2.73,7.75-3.52.1-.06.61-.05.56-.35-4.23-2.72-8.85-5.14-13.47-7.26-.56-.37.33-.85.78-.85l13.89,7.61c2.09-1.4,5.45-2.38,7.4-3.81.06-.04.46.02.42-.35-4.29-2.63-8.76-5.08-13.32-7.26-.46-.52,0-.82.35-1.13l14.03,7.9,7.19-3.52c-4.44-2.91-9.45-5.31-14.1-8.04-.34-.04-.74.17-1.06.28.66-.61-.53-.73-.92-.99-.35-.23-.32-.64-.49-.7.1-.08.28-.33.56-.56Z"/>
      <path class="cls-5" d="M58.74,33.19c-.12-.1-.29-.19-.42-.28-5.42-3.58-12.24-6.09-17.48-9.87l1.34-.7c6.09,3.22,12.19,6.46,18.12,9.94l-1.55.92Z"/>
      <path class="cls-1" d="M39.99,23.46c-.11.09-.26.6-.78.99-1.15.85-3.56,1.57-4.86,2.26.6-.45,5.33-3.35,5.64-3.24Z"/>
    </g>
    <g>
      <path class="cls-1" d="M116.13,40.38c-.4.95-1.27,1.63-2.04,2.26-14.77,7.23-29.11,18.02-43.78,25.1-3.32,1.6-7.82,1.87-11.28.42-.13-.05-.39-.38-.56-.42-13.33-8.73-29.57-15.44-42.65-24.25-1.59-1.07-3.07-1.97-3.03-3.95.25-.68.88-1,1.41-1.41-.06.5,1.15,1.41,1.55,1.69-.21.29-.17.63,0,.92.35.59,6.62,4.16,7.68,4.72,2.29,1.2,4.58,2.72,7.26,2.68l30.03-14.95c.29-.11.25-1.19.07-1.41l-18.4-9.87c2.47-1.51,5.02-2.94,7.61-4.23.06.65.04,1.19.28,1.83-.22,0-.11.19-.14.28-.23.61-.37,1.26-.14,1.97-.15.52-.12.74,0,1.27.58,2.51,6.77,5.87,9.24,6.34,4.08.79,8.34,0,11.91-1.97,2-1.1,4.35-2.36,3.81-5.08.19-.66.1-1.31.14-1.97.08-1.5.04-3.41,0-4.93l39.41,22.7c.73.58,1.66,1.2,1.62,2.26Z"/>
      <g>
        <path class="cls-4" d="M84.82,29.8c-1.83,1-3.65,1.98-5.5,2.96-.14-1.69-3.2.24-4.16.7-3.48,1.7-5.66,4.07-8.74,5.92-1,.6-3.12,1.03-3.6,2.11-.7.34-1.41.66-2.11.99-.07.03-.87.12-.92.14-1.4.66-2.7,1.57-4.09,2.26-.01-.18-.67-.16-.7-.14-4.15,1.97-10.38,4.66-14.1,7.05-.31.2-1,.72-1.06,1.13-.1.03-.4.49-1.06.28-1.36-.43.64-1.84,1.06-2.26,6.36-2.32,16.98-8.57,23.34-11.98,2.5-1.35,4.93-2.85,7.4-4.23,2.2-1.23,4.56-2.35,6.7-3.67.42-.26,1.13-1.25,1.34-1.27.14-.01.78.39,1.48.28.52-.08,1.58-.8,2.04-1.13.99-.16,2.25-.41,2.68.85Z"/>
        <path class="cls-5" d="M60.71,42.49c-.69.53-1.62,1.02-2.4,1.41-4.74,2.38-13.88,7.72-18.47,9.02.06-.4.75-.93,1.06-1.13,3.72-2.39,9.95-5.08,14.1-7.05.03-.02.69-.04.7.14,1.39-.69,2.69-1.6,4.09-2.26.04-.02.84-.11.92-.14Z"/>
        <path class="cls-4" d="M85.81,28.81c-.01.07-.57,1.23-.63,1.27-.04.02-.33-.29-.35-.28-.42-1.26-1.69-1.01-2.68-.85.57-.41,1.27-1.12,1.69-1.69,1.07.14,2.19.18,1.97,1.55Z"/>
        <path class="cls-5" d="M79.33,32.76c-5.48,2.92-10.91,6.05-16.5,8.74.47-1.09,2.6-1.51,3.6-2.11,3.08-1.86,5.26-4.23,8.74-5.92.96-.47,4.02-2.4,4.16-.7Z"/>
        <g>
          <path class="cls-13" d="M58.74,63.78c-2.16.24-4-.93-5.85-1.83-2.49-1.22-7.6-3.83-9.73-5.36-.53-.38-1.84-1.26-1.34-1.97l16.92,9.16Z"/>
          <g>
            <path class="cls-28" d="M58.74,63.78l-16.92-9.16c-.69-.32-1.51-.67-.78-1.55.46-.55,11.17-5.59,12.83-6.49,1.5-.81,2.99-1.77,4.44-2.68.78-.39,1.71-.88,2.4-1.41.7-.33,1.41-.65,2.11-.99,5.59-2.7,11.02-5.83,16.5-8.74,1.85-.98,3.66-1.96,5.5-2.96.02-.01.31.3.35.28.06-.04.62-1.2.63-1.27.78.26,1.35-.54,2.19-.42.09.01,1.4.71,1.69.85,5.26,2.36,10.42,5.94,15.65,8.46l.21,1.34-46.81,24.75Z"/>
            <g>
              <path class="cls-17" d="M101.18,38.83c.13-.06.72-.12.92-.14l-.21-.42c1,.48,1.5,1.03,2.4.42.18,1.38-1.13.39-1.48.42-.16.01-2.41,1.21-2.82,1.41-13.78,6.78-26.96,14.92-40.75,21.71-.84.07-1.42-.78-1.55-.85-3.9-1.93-7.67-4.11-11.56-6.06-.21-.47.27-.2.42-.14.96.35,2.02,1.64,2.75.56,3.22,1.83,6.52,3.52,9.66,5.5,2.07-1.39,5.14-2.31,7.12-3.67.18-.13.43-.15.56-.35-3.64-2.54-7.73-4.53-11.7-6.56.35.08.39-.54.42-.85,3.97,2.38,8.29,4.25,12.2,6.77l7.26-3.88-14.38-7.83c1.51-.54,1.98,1.38,2.96-.14,3.96,2.59,8.93,4.48,12.9,7.19l7.26-3.88-13.82-7.68c.99-.05,1.08.3,2.04.56l-.07-1.13,13.47,7.47c2.4-1.3,4.91-2.43,7.26-3.81.19-.11.85.04.78-.56l-12.69-6.77c-.47-.34-.1-.83-.07-1.13l13.47,7.47c.78.1,6.13-3.12,7.26-3.67Z"/>
              <path class="cls-15" d="M69.74,40.38l13.82,7.68-7.26,3.88c-3.97-2.71-8.94-4.6-12.9-7.19-.2-.13-1.09-.58-.92-.85l6.91-3.67c.17-.06.21.15.35.14Z"/>
              <path class="cls-8" d="M92.44,43.48c-2.36,1.37-4.86,2.51-7.26,3.81l-13.47-7.47-.35-.56,7.05-3.67,14.03,7.9Z"/>
              <path class="cls-11" d="M55.36,49.82c-.22-.14-1.73-1.03-1.62-1.27,2.1-.73,4.76-2.98,6.7-3.67l14.38,7.83-7.26,3.88c-3.9-2.51-8.23-4.39-12.2-6.77Z"/>
              <path class="cls-22" d="M87.22,31.07l13.96,7.75c-1.13.55-6.48,3.77-7.26,3.67l-13.47-7.47s-.31-.14-.28-.21c.18-.46,6.13-3.11,7.05-3.74Z"/>
              <path class="cls-14" d="M52.25,49.68c4.4,2.51,8.93,4.81,13.32,7.33.23.13.54.24.49.56-1.98,1.36-5.05,2.28-7.12,3.67-3.14-1.98-6.44-3.67-9.66-5.5-1.42-.81-2.9-1.52-4.23-2.47,1.39-.48,5.63-3.57,6.7-3.74.29-.05.33.11.49.14Z"/>
              <path class="cls-5" d="M104.28,38.68c-.9.61-1.4.06-2.4-.42-4.29-2.05-10.16-5.28-14.24-7.75-1.39-.84-2.24-1.14.07-1.69l17.13,9.38c.03.32-.37.36-.56.49Z"/>
              <path class="cls-12" d="M101.89,38.26l.21.42c-.2.02-.78.08-.92.14l-13.96-7.75c.07-.05.19-.46.42-.56,4.08,2.47,9.95,5.7,14.24,7.75Z"/>
              <path class="cls-27" d="M54.93,50.67c3.97,2.03,8.06,4.02,11.7,6.56-.13.21-.38.23-.56.35.05-.33-.26-.43-.49-.56-4.39-2.52-8.92-4.83-13.32-7.33-.09-.53.83-.04.92,0,.6.29,1.16.68,1.76.99Z"/>
            </g>
          </g>
        </g>
        <g>
          <path class="cls-29" d="M69.32,32.9c.38.08.66.7.85.99l-31.72,16.78c.33-.67,2.64-1.9,3.45-2.4,8.87-5.39,18.23-10.05,27.14-15.37.09,0,.2-.02.28,0Z"/>
          <path class="cls-21" d="M70.16,33.89c.14.22.47.46.42.85-2.48,1.38-4.9,2.88-7.4,4.23-6.35,3.41-16.98,9.67-23.34,11.98-.43.16-1.62.64-1.69-.07.04-.12.27-.2.28-.21l31.72-16.78Z"/>
          <path class="cls-25" d="M77.35,28.11c.69-.02,1.27,1.07,1.27,1.69-.21.02-.92,1.01-1.34,1.27-2.14,1.31-4.5,2.44-6.7,3.67.04-.38-.28-.63-.42-.85-.19-.29-.46-.9-.85-.99.43-1.24,1.24,1,1.76.99.74-.01,5.54-3.54,6.77-3.81.35-.86-1.87-1.94-.49-1.97Z"/>
          <g>
            <path class="cls-18" d="M83.84,27.26c-.42.57-1.12,1.28-1.69,1.69-.46.33-1.52,1.05-2.04,1.13-.7.11-1.34-.29-1.48-.28,0-.62-.58-1.71-1.27-1.69.01-.11-.03-.16-.14-.14,1.35-3.63,5.58-1.07,7.83-3.52.6.05-1.04,2.6-1.2,2.82Z"/>
            <path class="cls-18" d="M84.05,25.71c.1-.02.29-.03.35.07-.58,1.3-2.74,3.65-4.16,3.88-.46.07-2.21-.08-1.41-.7.12-.09,2.3-.47,2.96-.85.7-.4,2.1-2.36,2.26-2.4Z"/>
            <path class="cls-24" d="M83.34,25.71c.43.05.15.26,0,.42-.81.89-2.89,2.41-3.74.92-.08-.79,3.31-1.39,3.74-1.34Z"/>
          </g>
          <g>
            <path class="cls-25" d="M77.21,27.97c.11-.01.16.03.14.14-1.38.04.84,1.11.49,1.97-1.22.27-6.03,3.79-6.77,3.81-.52.01-1.34-2.22-1.76-.99-.08-.02-.19,0-.28,0l.21-.85c2.08-.54,6.13-3.84,7.97-4.09Z"/>
            <path class="cls-28" d="M76.29,28.67c.4-.06.54.07.78.35.09.41-5.91,3.77-6.27,3.74-.07,0-.37-.41-.49-.49l5.99-3.6Z"/>
          </g>
        </g>
      </g>
    </g>
    <g>
      <path class="cls-17" d="M51.41,10.2c1.53,1.28,5.59,3.6,7.47,4.23l.14.14c-.27-.07-.81-.13-1.13-.21l-.28,11.63c-1.96-.74-3.77-1.88-5.36-3.24l-.21-.7,1.76.42c.26.19.63.22.85.49l.28-.14c.13-.39.14-7.8,0-8.18-.02-.06-.58-.42-.7-.49-.22-1.45-3.41-2.45-3.74-3.81-.08-.32.32-.21.35-.42.16.17.54.26.56.28Z"/>
      <path class="cls-6" d="M50.28,19.51c-.25-.64-.23-1.18-.28-1.83-.02-.22.02-.85,0-1.27-.06-1.25-.02-2.55,0-3.81.01-.65-.07-1.33.07-1.97-.12,1.01,2.21,2.38,2.33,2.75s.13,7.52,0,7.9l-.28.14c-.76-.68-1.44-.88-1.83-1.9Z"/>
      <path class="cls-10" d="M54.23,14.15c.12.07.68.43.7.49.14.38.13,7.79,0,8.18l-.28.14c-.22-.27-.58-.31-.85-.49-.14-.1-.68-.29-.7-.35-.16-.39-.27-8.14.07-8.39.19.4.86.31,1.06.42Z"/>
      <path class="cls-26" d="M52.25,22.75c1.59,1.37,3.39,2.5,5.36,3.24.45.17.94.44,1.41.56.37.36.74.79.28,1.13-.29-.06-.61-.03-.99-.14-2.1-.61-7.63-3.67-8.32-5.78-.23-.71-.09-1.36.14-1.97-.07,1.45,1.2,2.18,2.11,2.96Z"/>
      <path class="cls-28" d="M58.32,27.55c.37.11.7.08.99.14,4.07.89,8.16.77,11.84-1.41v1.13c-3.57,1.97-7.84,2.76-11.91,1.97-2.46-.47-8.66-3.83-9.24-6.34.11,1.55,7.39,5.93,7.83,5.64.25-.17-.25-.97.49-1.13Z"/>
      <path class="cls-7" d="M74.95,22.33c-.35,1.23-2.71,3.3-3.81,3.95-3.68,2.18-7.77,2.3-11.84,1.41.46-.34.09-.76-.28-1.13,4.26,1.1,8.73.57,12.41-1.83.29-.19.33-.25.56-.42.7-.54,1.12-.83,1.69-1.55.61-.78.97-1.52,1.41-2.4-.04.67.05,1.32-.14,1.97Z"/>
      <path class="cls-17" d="M75.1,14.29c.01.25-.01.75,0,1.13.04,1.52.08,3.43,0,4.93-.44.87-.8,1.62-1.41,2.4l-.99.63c.33-2.27-.44-5.94,0-8.04.03-.13.52-.33.42-.63.5-.47,1.12-.57,1.55-1.27.34-.09.41.55.42.85Z"/>
      <path class="cls-17" d="M58.32,27.55c-.74.15-.25.96-.49,1.13-.43.29-7.71-4.09-7.83-5.64-.12-.53-.15-.75,0-1.27.69,2.11,6.22,5.17,8.32,5.78Z"/>
      <path class="cls-28" d="M71.15,27.4v-1.13c1.1-.65,3.45-2.71,3.81-3.95.54,2.72-1.81,3.97-3.81,5.08Z"/>
      <path class="cls-28" d="M59.02,14.57c2.37.58,4.48,1.63,7.12,1.27.35.25-1.36,4.1.85,4.65s2.79-1.67,3.74-2.96l.7,7.19c-3.68,2.41-8.14,2.93-12.41,1.83-.47-.12-.96-.39-1.41-.56l.28-11.63c.32.08.85.14,1.13.21Z"/>
      <path class="cls-17" d="M71.99,24.3c-.23.18-.28.24-.56.42l-.7-7.19c.21-.29.33-.8.7-1.27l.7-.21-.14,8.25Z"/>
      <path class="cls-17" d="M73.69,22.75c-.57.72-.99,1.01-1.69,1.55l.14-8.25-.7.21c.59-.74,1.09-.98,1.69-1.55.1.3-.39.5-.42.63-.44,2.1.33,5.77,0,8.04l.99-.63Z"/>
      <g>
        <path class="cls-7" d="M75.24,9.64c0,.07-.13.55-.14.85-.05,1.24.25,1.87-.42,2.96-.43.7-1.05.8-1.55,1.27-.61.57-1.1.81-1.69,1.55-.38.47-.49.98-.7,1.27-.94,1.3-1.63,3.49-3.74,2.96s-.5-4.41-.85-4.65c-2.64.36-4.75-.69-7.12-1.27l-.14-.14c.38.13,1.47.02,1.9.56l.78-1.41c3.93,1.31,11.51.06,13.68-3.95Z"/>
        <path class="cls-26" d="M52.4,8.93c-.65.72.25,1.34-.99,1.27-.02-.02-.4-.11-.56-.28-1.21-1.25-.92-1.49-.99-3.1.74,1.01,1.55,1.45,2.54,2.11Z"/>
        <path class="cls-9" d="M61.28,13.3s.26.28.28.28l-.78,1.41c-.44-.55-1.52-.44-1.9-.56-1.89-.63-5.94-2.95-7.47-4.23,1.23.07.34-.55.99-1.27,2.54,1.69,5.94,3.71,8.88,4.37Z"/>
        <g>
          <path class="cls-26" d="M75.24,9.64c-2.17,4.01-9.75,5.26-13.68,3.95-.02,0-.26-.27-.28-.28-2.17-.84-6.67-3.45-8.67-4.79-1.01-.68-1.86-1.44-2.75-2.26.05-2.5.25-3.34,2.61-4.65,6.72-3.74,15.15-.31,20.73,3.95,1.73,1.32,1.97,1.93,2.04,4.09Z"/>
          <path class="cls-3" d="M61.28,13.3c-2.94-.66-6.34-2.68-8.88-4.37-.99-.66-1.8-1.1-2.54-2.11,0-.19,0-.38,0-.56.89.82,1.74,1.58,2.75,2.26,2,1.34,6.5,3.95,8.67,4.79Z"/>
          <path class="cls-7" d="M57.82.9c4.67-.45,11.56,2.49,15.09,5.5,4.4,3.75-2.3,6.62-5.5,6.91-4.42.4-11.37-2.92-14.8-5.64-4.74-3.75,1.78-6.44,5.22-6.77Z"/>
          <path class="cls-26" d="M63.25,1.88c1.38.52,9.68,5.16,10.15,6.13.24.5.09.99.28,1.48-.93,2.39-6.69,3.51-8.95,3.38-3.07-.17-9.23-3.32-11.7-5.22s-2.32-3.23.28-4.79,7.28-1.98,9.94-.99Z"/>
          <path class="cls-3" d="M73.69,9.5c-.19-.49-.04-.98-.28-1.48-.47-.97-8.77-5.62-10.15-6.13.75.05,1.79.4,2.47.7,1.54.69,7.8,4.09,8.11,5.57.08.39,0,.96-.14,1.34Z"/>
        </g>
      </g>
    </g>
  </g>
</svg>