<?xml version="1.0" encoding="UTF-8"?>
<svg id="Layer_1" data-name="Layer 1" xmlns="http://www.w3.org/2000/svg" xmlns:xlink="http://www.w3.org/1999/xlink" viewBox="0 0 840.73 370.81">
  <defs>
    <style>
      .cls-1 {
        fill: #dd475a;
      }

      .cls-2 {
        fill: #e88136;
      }

      .cls-3 {
        fill: #df76a2;
      }

      .cls-4 {
        fill: #f5da38;
      }

      .cls-5 {
        fill: url(#radial-gradient);
      }

      .cls-6 {
        fill: #0072b1;
      }

      .cls-7 {
        fill: #77b647;
      }

      .cls-8 {
        fill: #843b78;
      }

      .cls-9 {
        stroke-dasharray: 5.89 5.89;
      }

      .cls-9, .cls-10, .cls-11 {
        fill: none;
        stroke: #787878;
        stroke-miterlimit: 10;
      }

      .cls-10 {
        stroke-dasharray: 6 6;
      }

      .cls-12 {
        fill: #24a4cf;
      }

      .cls-13 {
        fill: #fff;
      }

      .cls-14 {
        fill: #a93c86;
      }

      .cls-15 {
        fill: #787878;
      }

      .cls-16 {
        fill: #00947c;
      }
    </style>
    <radialGradient id="radial-gradient" cx="446" cy="26.69" fx="446" fy="26.69" r="686.42" gradientTransform="translate(0 177.97) scale(1 .62)" gradientUnits="userSpaceOnUse">
      <stop offset="0" stop-color="#fff"/>
      <stop offset=".35" stop-color="#fbfbfb"/>
      <stop offset=".64" stop-color="#f1f1f1"/>
      <stop offset=".91" stop-color="#e0e0e0"/>
      <stop offset="1" stop-color="#d9d9d9"/>
    </radialGradient>
  </defs>
  <rect class="cls-5" width="840.73" height="370.81"/>
  <g>
    <g>
      <g>
        <g>
          <circle class="cls-10" cx="143.97" cy="148.66" r="40.12"/>
          <circle class="cls-11" cx="226.73" cy="298.73" r="42.64"/>
          <circle class="cls-9" cx="497.07" cy="140.93" r="30.03" transform="translate(275.86 607.85) rotate(-80.48)"/>
          <g>
            <g>
              <polyline class="cls-11" points="71.15 100.11 143.97 148.66 143.97 44.93"/>
              <polyline class="cls-11" points="143.97 148.66 321.63 229.21 226.73 298.73 143.97 148.66 27.01 218.17"/>
              <polyline class="cls-11" points="95.42 338.45 139.56 247.97 321.63 229.21 337.08 107.83 253.21 63.69"/>
            </g>
            <polyline class="cls-11" points="423.14 44.93 337.08 107.83 497.07 140.93 618.45 74.73 710.04 254.59 321.63 229.21"/>
            <polygon class="cls-11" points="321.63 229.21 454.04 293.21 497.07 140.93 321.63 229.21"/>
          </g>
          <polyline class="cls-11" points="548.89 32.36 618.45 74.73 736.48 74.73"/>
          <polyline class="cls-11" points="710.04 254.59 497.07 140.93 790.55 149.76 710.04 254.59 678.04 316.38"/>
          <line class="cls-11" x1="790.55" y1="149.76" x2="813.72" y2="102.98"/>
          <polyline class="cls-11" points="520.25 324.77 454.04 293.21 395.51 324.77"/>
          <circle class="cls-11" cx="615.14" cy="75.83" r="41.93"/>
          <circle class="cls-10" cx="710.04" cy="254.59" r="41.55"/>
        </g>
        <circle class="cls-12" cx="143.97" cy="148.66" r="32" transform="translate(-62.95 145.35) rotate(-45)"/>
        <circle class="cls-14" cx="226.73" cy="298.73" r="32" transform="translate(-104.74 474.14) rotate(-80.69)"/>
        <circle class="cls-16" cx="615.14" cy="75.83" r="32" transform="translate(449.42 673.06) rotate(-81.52)"/>
        <circle class="cls-3" cx="321.63" cy="229.21" r="32" transform="translate(-67.87 294.56) rotate(-45)"/>
        <circle class="cls-6" cx="139.56" cy="244.66" r="23.17" transform="translate(-130.43 324.9) rotate(-76.85)"/>
        <path class="cls-15" d="M150.83,44.93c0,3.78-3.07,6.85-6.85,6.85s-6.85-3.07-6.85-6.85,3.07-6.85,6.85-6.85,6.85,3.07,6.85,6.85Z"/>
        <path class="cls-15" d="M259.17,63.69c0,3.78-3.07,6.85-6.85,6.85s-6.85-3.07-6.85-6.85,3.07-6.85,6.85-6.85,6.85,3.07,6.85,6.85Z"/>
        <path class="cls-15" d="M430.12,44.93c0,3.78-3.07,6.85-6.85,6.85s-6.85-3.07-6.85-6.85,3.07-6.85,6.85-6.85,6.85,3.07,6.85,6.85Z"/>
        <path class="cls-15" d="M555.74,32.36c0,3.78-3.07,6.85-6.85,6.85s-6.85-3.07-6.85-6.85,3.07-6.85,6.85-6.85,6.85,3.07,6.85,6.85Z"/>
        <path class="cls-15" d="M78,99.37c0,3.78-3.07,6.85-6.85,6.85s-6.85-3.07-6.85-6.85,3.07-6.85,6.85-6.85,6.85,3.07,6.85,6.85Z"/>
        <circle class="cls-15" cx="27.01" cy="217.07" r="6.85"/>
        <path class="cls-15" d="M102.27,338.45c0,3.78-3.07,6.85-6.85,6.85s-6.85-3.07-6.85-6.85,3.07-6.85,6.85-6.85,6.85,3.07,6.85,6.85Z"/>
        <path class="cls-15" d="M402.37,324.77c0,3.78-3.07,6.85-6.85,6.85s-6.85-3.07-6.85-6.85,3.07-6.85,6.85-6.85,6.85,3.07,6.85,6.85Z"/>
        <path class="cls-15" d="M527.1,324.77c0,3.78-3.07,6.85-6.85,6.85s-6.85-3.07-6.85-6.85,3.07-6.85,6.85-6.85,6.85,3.07,6.85,6.85Z"/>
        <path class="cls-15" d="M684.89,316.38c0,3.78-3.07,6.85-6.85,6.85s-6.85-3.07-6.85-6.85,3.07-6.85,6.85-6.85,6.85,3.07,6.85,6.85Z"/>
        <path class="cls-15" d="M820.57,102.98c0,3.78-3.07,6.85-6.85,6.85s-6.85-3.07-6.85-6.85,3.07-6.85,6.85-6.85,6.85,3.07,6.85,6.85Z"/>
        <path class="cls-15" d="M743.33,74.73c0,3.78-3.07,6.85-6.85,6.85s-6.85-3.07-6.85-6.85,3.07-6.85,6.85-6.85,6.85,3.07,6.85,6.85Z"/>
        <circle class="cls-1" cx="337.08" cy="107.83" r="23.17" transform="translate(177.01 423.47) rotate(-80.85)"/>
        <circle class="cls-8" cx="453.53" cy="293.21" r="23.17" transform="translate(63.09 666.32) rotate(-76.58)"/>
        <circle class="cls-7" cx="790.55" cy="149.76" r="23.17" transform="translate(125.65 602.86) rotate(-45)"/>
        <circle class="cls-4" cx="497.07" cy="140.93" r="23.17" transform="translate(278.88 609.27) rotate(-80.85)"/>
        <circle class="cls-2" cx="710.04" cy="254.59" r="32" transform="translate(27.94 576.64) rotate(-45)"/>
      </g>
      <g>
        <g>
          <path class="cls-13" d="M609.39,74.03c8.11,0,14.69,6.58,14.69,14.69h-29.38c0-8.11,6.58-14.69,14.69-14.69Z"/>
          <path class="cls-13" d="M602.13,64.87c0,4.01,3.25,7.26,7.26,7.26s7.26-3.25,7.26-7.26-3.25-7.26-7.26-7.26-7.26,3.25-7.26,7.26Z"/>
        </g>
        <g>
          <path class="cls-13" d="M625.14,77.75c6.06,0,10.97,4.91,10.97,10.97h-21.95c0-6.06,4.91-10.97,10.97-10.97Z"/>
          <path class="cls-13" d="M619.72,70.91c0,2.99,2.43,5.42,5.42,5.42s5.42-2.43,5.42-5.42-2.43-5.42-5.42-5.42-5.42,2.43-5.42,5.42Z"/>
        </g>
      </g>
      <g>
        <polygon class="cls-2" points="671.97 137.18 665.97 140.5 666.09 133.65 666.21 126.79 672.09 130.32 677.96 133.85 671.97 137.18"/>
        <polygon class="cls-2" points="665.37 125.27 659.38 128.59 659.5 121.74 659.62 114.89 665.49 118.42 671.37 121.95 665.37 125.27"/>
        <polygon class="cls-2" points="658.77 113.36 652.78 116.68 652.9 109.83 653.02 102.98 658.89 106.51 664.77 110.04 658.77 113.36"/>
      </g>
      <g>
        <polygon class="cls-4" points="496.25 192.61 502.96 193.98 498.42 199.11 493.88 204.24 491.71 197.74 489.53 191.24 496.25 192.61"/>
        <polygon class="cls-4" points="493.53 205.94 500.24 207.31 495.7 212.44 491.16 217.58 488.99 211.08 486.81 204.57 493.53 205.94"/>
        <polygon class="cls-4" points="490.81 219.28 497.52 220.65 492.98 225.78 488.44 230.91 486.27 224.41 484.09 217.91 490.81 219.28"/>
      </g>
      <g>
        <polygon class="cls-12" points="253.31 184.93 256.31 178.77 260.14 184.45 263.98 190.13 257.14 190.61 250.3 191.09 253.31 184.93"/>
        <polygon class="cls-12" points="265.54 190.9 268.54 184.74 272.38 190.42 276.21 196.1 269.37 196.58 262.54 197.06 265.54 190.9"/>
        <polygon class="cls-12" points="277.77 196.87 280.78 190.71 284.61 196.39 288.44 202.07 281.61 202.55 274.77 203.02 277.77 196.87"/>
      </g>
      <g>
        <polygon class="cls-1" points="355.88 184.23 353.42 186.09 347.14 177.83 338.88 184.12 337.01 181.66 347.73 173.51 355.88 184.23"/>
        <polygon class="cls-1" points="357.01 175.89 354.55 177.76 348.27 169.5 340.01 175.78 338.15 173.32 348.86 165.17 357.01 175.89"/>
        <polygon class="cls-1" points="358.14 167.55 355.69 169.42 349.41 161.16 341.15 167.44 339.28 164.99 349.99 156.84 358.14 167.55"/>
        <polygon class="cls-1" points="359.28 159.21 356.82 161.08 350.54 152.82 342.28 159.1 340.41 156.65 351.13 148.5 359.28 159.21"/>
      </g>
      <g>
        <polygon class="cls-16" points="629.93 161.23 630.86 158.29 640.76 161.41 643.87 151.51 646.82 152.44 642.77 165.28 629.93 161.23"/>
        <polygon class="cls-16" points="633.82 168.69 634.75 165.75 644.64 168.87 647.76 158.97 650.7 159.9 646.66 172.74 633.82 168.69"/>
        <polygon class="cls-16" points="637.7 176.15 638.63 173.22 648.53 176.33 651.65 166.44 654.59 167.36 650.54 180.2 637.7 176.15"/>
        <polygon class="cls-16" points="641.59 183.62 642.52 180.68 652.41 183.8 655.53 173.9 658.48 174.83 654.43 187.66 641.59 183.62"/>
      </g>
      <g>
        <polygon class="cls-8" points="613.95 275.46 611.91 273.15 619.68 266.27 612.8 258.5 615.11 256.46 624.03 266.54 613.95 275.46"/>
        <polygon class="cls-8" points="622.35 275.97 620.3 273.66 628.08 266.78 621.2 259.01 623.51 256.97 632.43 267.05 622.35 275.97"/>
        <polygon class="cls-8" points="630.75 276.48 628.71 274.17 636.48 267.3 629.6 259.52 631.91 257.48 640.83 267.56 630.75 276.48"/>
        <polygon class="cls-8" points="639.15 277 637.1 274.69 644.87 267.81 638 260.04 640.31 257.99 649.23 268.08 639.15 277"/>
      </g>
      <g>
        <polygon class="cls-6" points="201.13 225.39 195.09 228.62 195.32 221.77 195.55 214.92 201.37 218.55 207.18 222.17 201.13 225.39"/>
        <polygon class="cls-6" points="194.73 213.38 188.68 216.61 188.91 209.76 189.15 202.91 194.96 206.53 200.78 210.16 194.73 213.38"/>
        <polygon class="cls-6" points="188.33 201.37 182.28 204.6 182.51 197.75 182.74 190.9 188.56 194.52 194.37 198.15 188.33 201.37"/>
      </g>
    </g>
    <g>
      <path class="cls-13" d="M321.63,229.78c5.38,0,9.74,4.36,9.74,9.74h-19.48c0-5.38,4.36-9.74,9.74-9.74Z"/>
      <path class="cls-13" d="M316.81,223.71c0,2.66,2.15,4.81,4.81,4.81s4.81-2.15,4.81-4.81-2.15-4.81-4.81-4.81-4.81,2.15-4.81,4.81Z"/>
      <path class="cls-13" d="M336.31,229.78c5.38,0,9.74,4.36,9.74,9.74h-19.48c0-5.38,4.36-9.74,9.74-9.74Z"/>
      <path class="cls-13" d="M331.5,223.71c0,2.66,2.15,4.81,4.81,4.81s4.81-2.15,4.81-4.81-2.15-4.81-4.81-4.81-4.81,2.15-4.81,4.81Z"/>
      <path class="cls-13" d="M306.94,229.78c5.38,0,9.74,4.36,9.74,9.74h-19.48c0-5.38,4.36-9.74,9.74-9.74Z"/>
      <path class="cls-13" d="M302.13,223.71c0,2.66,2.15,4.81,4.81,4.81s4.81-2.15,4.81-4.81-2.15-4.81-4.81-4.81-4.81,2.15-4.81,4.81Z"/>
    </g>
    <g>
      <path class="cls-13" d="M711.62,254.37c5.38,0,9.74,4.36,9.74,9.74h-19.48c0-5.38,4.36-9.74,9.74-9.74Z"/>
      <path class="cls-13" d="M706.8,248.3c0,2.66,2.15,4.81,4.81,4.81s4.81-2.15,4.81-4.81-2.15-4.81-4.81-4.81-4.81,2.15-4.81,4.81Z"/>
      <path class="cls-13" d="M726.3,254.37c5.38,0,9.74,4.36,9.74,9.74h-19.48c0-5.38,4.36-9.74,9.74-9.74Z"/>
      <path class="cls-13" d="M721.49,248.3c0,2.66,2.15,4.81,4.81,4.81s4.81-2.15,4.81-4.81-2.16-4.81-4.81-4.81-4.81,2.15-4.81,4.81Z"/>
      <path class="cls-13" d="M696.93,254.37c5.38,0,9.74,4.36,9.74,9.74h-19.48c0-5.38,4.36-9.74,9.74-9.74Z"/>
      <path class="cls-13" d="M692.12,248.3c0,2.66,2.15,4.81,4.81,4.81s4.81-2.15,4.81-4.81-2.15-4.81-4.81-4.81-4.81,2.15-4.81,4.81Z"/>
    </g>
    <path class="cls-13" d="M497.07,128.91c3.03,0,5.48,2.45,5.48,5.48s-2.45,5.48-5.48,5.48-5.48-2.45-5.48-5.48,2.46-5.48,5.48-5.48ZM485.98,152.41c0-6.13,4.97-11.1,11.1-11.1s11.1,4.97,11.1,11.1h-22.19Z"/>
    <path class="cls-13" d="M791.33,136.82c3.03,0,5.48,2.45,5.48,5.48s-2.45,5.48-5.48,5.48-5.48-2.46-5.48-5.48,2.46-5.48,5.48-5.48ZM780.24,160.32c0-6.13,4.97-11.1,11.1-11.1s11.1,4.97,11.1,11.1h-22.19Z"/>
    <path class="cls-13" d="M453.53,281.46c3.03,0,5.48,2.45,5.48,5.48s-2.45,5.48-5.48,5.48-5.48-2.46-5.48-5.48,2.46-5.48,5.48-5.48ZM442.44,304.96c0-6.13,4.97-11.1,11.1-11.1s11.1,4.97,11.1,11.1h-22.19Z"/>
    <path class="cls-13" d="M139.56,231.74c3.03,0,5.48,2.45,5.48,5.48s-2.45,5.48-5.48,5.48-5.48-2.46-5.48-5.48,2.46-5.48,5.48-5.48ZM128.46,255.23c0-6.13,4.97-11.1,11.1-11.1s11.1,4.97,11.1,11.1h-22.19Z"/>
    <g>
      <g>
        <path class="cls-13" d="M220.71,297c8.11,0,14.69,6.58,14.69,14.69h-29.38c0-8.11,6.58-14.69,14.69-14.69Z"/>
        <path class="cls-13" d="M213.46,287.84c0,4.01,3.25,7.26,7.26,7.26s7.26-3.25,7.26-7.26-3.25-7.26-7.26-7.26-7.26,3.25-7.26,7.26Z"/>
      </g>
      <g>
        <path class="cls-13" d="M236.46,300.72c6.06,0,10.97,4.91,10.97,10.97h-21.95c0-6.06,4.91-10.97,10.97-10.97Z"/>
        <path class="cls-13" d="M231.04,293.87c0,2.99,2.43,5.42,5.42,5.42s5.42-2.43,5.42-5.42-2.43-5.42-5.42-5.42-5.42,2.43-5.42,5.42Z"/>
      </g>
    </g>
    <g>
      <g>
        <path class="cls-13" d="M139.02,147.73c8.11,0,14.69,6.58,14.69,14.69h-29.38c0-8.11,6.58-14.69,14.69-14.69Z"/>
        <path class="cls-13" d="M131.77,138.57c0,4.01,3.25,7.26,7.26,7.26s7.26-3.25,7.26-7.26-3.25-7.26-7.26-7.26-7.26,3.25-7.26,7.26Z"/>
      </g>
      <g>
        <path class="cls-13" d="M154.77,151.44c6.06,0,10.97,4.91,10.97,10.97h-21.95c0-6.06,4.91-10.97,10.97-10.97Z"/>
        <path class="cls-13" d="M149.35,144.6c0,2.99,2.43,5.42,5.42,5.42s5.42-2.43,5.42-5.42-2.43-5.42-5.42-5.42-5.42,2.43-5.42,5.42Z"/>
      </g>
    </g>
    <g>
      <g>
        <path class="cls-13" d="M332.32,106.71c5.38,0,9.75,4.37,9.75,9.75h-19.5c0-5.38,4.37-9.75,9.75-9.75Z"/>
        <path class="cls-13" d="M327.5,100.63c0,2.66,2.16,4.82,4.82,4.82s4.82-2.16,4.82-4.82-2.16-4.82-4.82-4.82-4.82,2.16-4.82,4.82Z"/>
      </g>
      <g>
        <path class="cls-13" d="M342.77,109.18c4.02,0,7.28,3.26,7.28,7.28h-14.57c0-4.02,3.26-7.28,7.28-7.28Z"/>
        <path class="cls-13" d="M339.18,104.63c0,1.99,1.61,3.6,3.6,3.6s3.6-1.61,3.6-3.6-1.61-3.6-3.6-3.6-3.6,1.61-3.6,3.6Z"/>
      </g>
    </g>
  </g>
</svg>